<svg  viewBox="0 0 183 182" fill="none" xmlns="http://www.w3.org/2000/svg">
<rect x="0.833008" y="0.0843506" width="181.177" height="181.177" rx="38.9106" fill="#FA5A00"/>
<path d="M69.7053 133.509L67.8305 136.92L69.7053 133.509ZM128.632 39.0656L132.038 37.1817L131.168 35.6079L129.405 35.2506L128.632 39.0656ZM71.5802 130.098C47.6149 116.926 40.1655 105.202 40.1394 95.9287C40.1128 86.4655 47.7387 77.0966 60.1813 68.5571C72.3709 60.1914 88.0307 53.4287 101.538 48.9177C108.273 46.6687 114.395 45.0053 119.188 43.9901C121.588 43.4816 123.607 43.1459 125.176 42.9753C125.96 42.89 126.593 42.8502 127.082 42.8449C127.324 42.8423 127.512 42.8484 127.652 42.8583C127.796 42.8684 127.859 42.8805 127.859 42.8805L129.405 35.2506C127.958 34.9573 126.121 35.0416 124.334 35.236C122.426 35.4436 120.135 35.8316 117.574 36.3741C112.445 37.4607 106.036 39.2082 99.0725 41.5336C85.1852 46.1713 68.7833 53.2115 55.7761 62.1384C43.022 70.8917 32.3162 82.3053 32.3545 95.9506C32.3934 109.786 43.4057 123.496 67.8305 136.92L71.5802 130.098ZM125.226 40.9494C125.813 42.0119 126.893 45.0059 128.126 49.751C129.32 54.3483 130.573 60.2474 131.605 66.8523C133.676 80.1125 134.81 95.9335 132.933 109.656C131.03 123.573 126.211 134.151 117.508 138.72C108.863 143.26 94.635 142.769 71.5802 130.098L67.8305 136.92C91.5268 149.944 108.893 152.037 121.127 145.613C133.305 139.219 138.653 125.286 140.646 110.71C142.666 95.9395 141.426 79.2848 139.297 65.651C138.228 58.8089 136.924 52.6564 135.661 47.7932C134.435 43.0778 133.156 39.2022 132.038 37.1817L125.226 40.9494ZM68.9113 137.32C80.6949 139.775 90.4878 135.745 98.3155 128.354C105.999 121.099 111.905 110.537 116.496 99.3915C125.684 77.081 130.195 50.8708 132.446 39.8441L124.818 38.287C122.494 49.6711 118.133 74.9731 109.297 96.4269C104.876 107.163 99.482 116.546 92.971 122.693C86.6039 128.705 79.3071 131.534 70.4993 129.698L68.9113 137.32Z" fill="white"/>
</svg>
