<svg xmlns="http://www.w3.org/2000/svg" xml:space="preserve" width="1007" height="1007" viewBox="0 0 1007 1007" fill="currentColor">
  <path d="M266 38h19v19h-19zm19 0h19v19h-19zm19 0h19v19h-19zm38 0h19v19h-19zm95 0h19v19h-19zm19 0h19v19h-19zm38 0h19v19h-19zm38 0h19v19h-19zm57 0h19v19h-19zm19 0h19v19h-19zm19 0h19v19h-19zm38 0h19v19h-19zm19 0h19v19h-19zm19 0h19v19h-19zm19 0h19v19h-19zm76 0h19v19h-19zM209 57h19v19h-19zm38 0h19v19h-19zm19 0h19v19h-19zm38 0h19v19h-19zm19 0h19v19h-19zm57 0h19v19h-19zm38 0h19v19h-19zm57 0h19v19h-19zm38 0h19v19h-19zm19 0h19v19h-19zm19 0h19v19h-19zm19 0h19v19h-19zm19 0h19v19h-19zm19 0h19v19h-19zm19 0h19v19h-19zm76 0h19v19h-19zm57 0h19v19h-19zm19 0h19v19h-19zm19 0h19v19h-19zM209 76h19v19h-19zm19 0h19v19h-19zm19 0h19v19h-19zm57 0h19v19h-19zm38 0h19v19h-19zm19 0h19v19h-19zm57 0h19v19h-19zm38 0h19v19h-19zm95 0h19v19h-19zm76 0h19v19h-19zm38 0h19v19h-19zm38 0h19v19h-19zm76 0h19v19h-19zm19 0h19v19h-19zM209 95h19v19h-19zm38 0h19v19h-19zm19 0h19v19h-19zm19 0h19v19h-19zm19 0h19v19h-19zm38 0h19v19h-19zm38 0h19v19h-19zm19 0h19v19h-19zm76 0h19v19h-19zm38 0h19v19h-19zm19 0h19v19h-19zm76 0h19v19h-19zm76 0h19v19h-19zm95 0h19v19h-19zm-570 19h19v19h-19zm19 0h19v19h-19zm38 0h19v19h-19zm19 0h19v19h-19zm76 0h19v19h-19zm95 0h19v19h-19zm19 0h19v19h-19zm19 0h19v19h-19zm19 0h19v19h-19zm19 0h19v19h-19zm19 0h19v19h-19zm38 0h19v19h-19zm19 0h19v19h-19zm57 0h19v19h-19zm38 0h19v19h-19zm19 0h19v19h-19zm-532 19h19v19h-19zm57 0h19v19h-19zm19 0h19v19h-19zm19 0h19v19h-19zm19 0h19v19h-19zm19 0h19v19h-19zm19 0h19v19h-19zm19 0h19v19h-19zm38 0h19v19h-19zm57 0h19v19h-19zm76 0h19v19h-19zm76 0h19v19h-19zm19 0h19v19h-19zm38 0h19v19h-19zm19 0h19v19h-19zm38 0h19v19h-19zm19 0h19v19h-19zm19 0h19v19h-19zm-570 19h19v19h-19zm38 0h19v19h-19zm38 0h19v19h-19zm38 0h19v19h-19zm38 0h19v19h-19zm38 0h19v19h-19zm38 0h19v19h-19zm38 0h19v19h-19zm38 0h19v19h-19zm38 0h19v19h-19zm38 0h19v19h-19zm38 0h19v19h-19zm38 0h19v19h-19zm38 0h19v19h-19zm38 0h19v19h-19zm38 0h19v19h-19zm38 0h19v19h-19zm-551 19h19v19h-19zm19 0h19v19h-19zm19 0h19v19h-19zm19 0h19v19h-19zm19 0h19v19h-19zm76 0h19v19h-19zm19 0h19v19h-19zm38 0h19v19h-19zm76 0h19v19h-19zm19 0h19v19h-19zm38 0h19v19h-19zm19 0h19v19h-19zm38 0h19v19h-19zm19 0h19v19h-19zm38 0h19v19h-19zm19 0h19v19h-19zm19 0h19v19h-19zm19 0h19v19h-19zM38 190h19v19H38zm57 0h19v19H95zm38 0h19v19h-19zm19 0h19v19h-19zm38 0h19v19h-19zm19 0h19v19h-19zm19 0h19v19h-19zm38 0h19v19h-19zm19 0h19v19h-19zm38 0h19v19h-19zm19 0h19v19h-19zm38 0h19v19h-19zm38 0h19v19h-19zm19 0h19v19h-19zm19 0h19v19h-19zm19 0h19v19h-19zm19 0h19v19h-19zm19 0h19v19h-19zm19 0h19v19h-19zm19 0h19v19h-19zm19 0h19v19h-19zm38 0h19v19h-19zm19 0h19v19h-19zm38 0h19v19h-19zm19 0h19v19h-19zm38 0h19v19h-19zm19 0h19v19h-19zm19 0h19v19h-19zm57 0h19v19h-19zm38 0h19v19h-19zM95 209h19v19H95zm19 0h19v19h-19zm19 0h19v19h-19zm38 0h19v19h-19zm19 0h19v19h-19zm19 0h19v19h-19zm38 0h19v19h-19zm209 0h19v19h-19zm114 0h19v19h-19zm76 0h19v19h-19zm57 0h19v19h-19zm19 0h19v19h-19zm57 0h19v19h-19zm76 0h19v19h-19zm38 0h19v19h-19zm38 0h19v19h-19zm19 0h19v19h-19zM38 228h19v19H38zm57 0h19v19H95zm19 0h19v19h-19zm38 0h19v19h-19zm76 0h19v19h-19zm19 0h19v19h-19zm38 0h19v19h-19zm19 0h19v19h-19zm38 0h19v19h-19zm38 0h19v19h-19zm38 0h19v19h-19zm19 0h19v19h-19zm19 0h19v19h-19zm19 0h19v19h-19zm38 0h19v19h-19zm114 0h19v19h-19zm57 0h19v19h-19zm19 0h19v19h-19zm38 0h19v19h-19zm57 0h19v19h-19zm19 0h19v19h-19zm38 0h19v19h-19zm19 0h19v19h-19zm57 0h19v19h-19zm19 0h19v19h-19zM38 247h19v19H38zm19 0h19v19H57zm114 0h19v19h-19zm19 0h19v19h-19zm57 0h19v19h-19zm38 0h19v19h-19zm38 0h19v19h-19zm19 0h19v19h-19zm57 0h19v19h-19zm19 0h19v19h-19zm76 0h19v19h-19zm19 0h19v19h-19zm57 0h19v19h-19zm19 0h19v19h-19zm38 0h19v19h-19zm95 0h19v19h-19zm19 0h19v19h-19zm19 0h19v19h-19zm19 0h19v19h-19zm57 0h19v19h-19zm19 0h19v19h-19zm76 0h19v19h-19zM38 266h19v19H38zm19 0h19v19H57zm38 0h19v19H95zm19 0h19v19h-19zm38 0h19v19h-19zm19 0h19v19h-19zm57 0h19v19h-19zm19 0h19v19h-19zm57 0h19v19h-19zm38 0h19v19h-19zm19 0h19v19h-19zm38 0h19v19h-19zm19 0h19v19h-19zm57 0h19v19h-19zm19 0h19v19h-19zm19 0h19v19h-19zm38 0h19v19h-19zm19 0h19v19h-19zm38 0h19v19h-19zm19 0h19v19h-19zm19 0h19v19h-19zm19 0h19v19h-19zm38 0h19v19h-19zm19 0h19v19h-19zm19 0h19v19h-19zm114 0h19v19h-19zm19 0h19v19h-19zm76 0h19v19h-19zM38 285h19v19H38zm38 0h19v19H76zm19 0h19v19H95zm19 0h19v19h-19zm57 0h19v19h-19zm19 0h19v19h-19zm57 0h19v19h-19zm57 0h19v19h-19zm57 0h19v19h-19zm76 0h19v19h-19zm19 0h19v19h-19zm19 0h19v19h-19zm38 0h19v19h-19zm76 0h19v19h-19zm38 0h19v19h-19zm19 0h19v19h-19zm38 0h19v19h-19zm38 0h19v19h-19zm19 0h19v19h-19zm57 0h19v19h-19zm19 0h19v19h-19zm57 0h19v19h-19zm76 0h19v19h-19zM38 304h19v19H38zm19 0h19v19H57zm38 0h19v19H95zm19 0h19v19h-19zm38 0h19v19h-19zm76 0h19v19h-19zm19 0h19v19h-19zm38 0h19v19h-19zm38 0h19v19h-19zm19 0h19v19h-19zm19 0h19v19h-19zm38 0h19v19h-19zm38 0h19v19h-19zm19 0h19v19h-19zm57 0h19v19h-19zm19 0h19v19h-19zm19 0h19v19h-19zm38 0h19v19h-19zm171 0h19v19h-19zm38 0h19v19h-19zm19 0h19v19h-19zm38 0h19v19h-19zm19 0h19v19h-19zm19 0h19v19h-19zm19 0h19v19h-19zm38 0h19v19h-19zM38 323h19v19H38zm19 0h19v19H57zm19 0h19v19H76zm19 0h19v19H95zm19 0h19v19h-19zm76 0h19v19h-19zm95 0h19v19h-19zm19 0h19v19h-19zm19 0h19v19h-19zm57 0h19v19h-19zm19 0h19v19h-19zm38 0h19v19h-19zm38 0h19v19h-19zm19 0h19v19h-19zm19 0h19v19h-19zm57 0h19v19h-19zm57 0h19v19h-19zm19 0h19v19h-19zm19 0h19v19h-19zm38 0h19v19h-19zm19 0h19v19h-19zm38 0h19v19h-19zm19 0h19v19h-19zm38 0h19v19h-19zm19 0h19v19h-19zm19 0h19v19h-19zm19 0h19v19h-19zm57 0h19v19h-19zM38 342h19v19H38zm19 0h19v19H57zm19 0h19v19H76zm38 0h19v19h-19zm19 0h19v19h-19zm19 0h19v19h-19zm19 0h19v19h-19zm38 0h19v19h-19zm19 0h19v19h-19zm38 0h19v19h-19zm19 0h19v19h-19zm19 0h19v19h-19zm95 0h19v19h-19zm76 0h19v19h-19zm19 0h19v19h-19zm19 0h19v19h-19zm76 0h19v19h-19zm19 0h19v19h-19zm38 0h19v19h-19zm38 0h19v19h-19zm19 0h19v19h-19zm19 0h19v19h-19zm38 0h19v19h-19zm38 0h19v19h-19zm19 0h19v19h-19zm19 0h19v19h-19zm38 0h19v19h-19zm38 0h19v19h-19zM38 361h19v19H38zm57 0h19v19H95zm38 0h19v19h-19zm38 0h19v19h-19zm19 0h19v19h-19zm19 0h19v19h-19zm19 0h19v19h-19zm19 0h19v19h-19zm19 0h19v19h-19zm19 0h19v19h-19zm19 0h19v19h-19zm19 0h19v19h-19zm19 0h19v19h-19zm19 0h19v19h-19zm57 0h19v19h-19zm19 0h19v19h-19zm38 0h19v19h-19zm38 0h19v19h-19zm19 0h19v19h-19zm19 0h19v19h-19zm19 0h19v19h-19zm57 0h19v19h-19zm19 0h19v19h-19zm114 0h19v19h-19zm57 0h19v19h-19zm133 0h19v19h-19zM38 380h19v19H38zm19 0h19v19H57zm19 0h19v19H76zm57 0h19v19h-19zm19 0h19v19h-19zm19 0h19v19h-19zm57 0h19v19h-19zm19 0h19v19h-19zm57 0h19v19h-19zm57 0h19v19h-19zm19 0h19v19h-19zm19 0h19v19h-19zm19 0h19v19h-19zm38 0h19v19h-19zm19 0h19v19h-19zm19 0h19v19h-19zm76 0h19v19h-19zm57 0h19v19h-19zm19 0h19v19h-19zm19 0h19v19h-19zm57 0h19v19h-19zm19 0h19v19h-19zm38 0h19v19h-19zm76 0h19v19h-19zm57 0h19v19h-19zm38 0h19v19h-19zM38 399h19v19H38zm38 0h19v19H76zm19 0h19v19H95zm38 0h19v19h-19zm76 0h19v19h-19zm19 0h19v19h-19zm38 0h19v19h-19zm95 0h19v19h-19zm38 0h19v19h-19zm19 0h19v19h-19zm38 0h19v19h-19zm38 0h19v19h-19zm19 0h19v19h-19zm38 0h19v19h-19zm57 0h19v19h-19zm76 0h19v19h-19zm19 0h19v19h-19zm19 0h19v19h-19zm57 0h19v19h-19zm19 0h19v19h-19zm19 0h19v19h-19zm19 0h19v19h-19zm19 0h19v19h-19zm19 0h19v19h-19zm38 0h19v19h-19zm19 0h19v19h-19zM38 418h19v19H38zm38 0h19v19H76zm76 0h19v19h-19zm38 0h19v19h-19zm76 0h19v19h-19zm57 0h19v19h-19zm38 0h19v19h-19zm19 0h19v19h-19zm38 0h19v19h-19zm19 0h19v19h-19zm57 0h19v19h-19zm19 0h19v19h-19zm38 0h19v19h-19zm19 0h19v19h-19zm38 0h19v19h-19zm19 0h19v19h-19zm38 0h19v19h-19zm57 0h19v19h-19zm19 0h19v19h-19zm95 0h19v19h-19zm57 0h19v19h-19zM38 437h19v19H38zm38 0h19v19H76zm19 0h19v19H95zm19 0h19v19h-19zm19 0h19v19h-19zm38 0h19v19h-19zm19 0h19v19h-19zm38 0h19v19h-19zm19 0h19v19h-19zm38 0h19v19h-19zm76 0h19v19h-19zm19 0h19v19h-19zm133 0h19v19h-19zm38 0h19v19h-19zm38 0h19v19h-19zm285 0h19v19h-19zm19 0h19v19h-19zm19 0h19v19h-19zm38 0h19v19h-19zM57 456h19v19H57zm19 0h19v19H76zm19 0h19v19H95zm19 0h19v19h-19zm19 0h19v19h-19zm19 0h19v19h-19zm19 0h19v19h-19zm19 0h19v19h-19zm38 0h19v19h-19zm19 0h19v19h-19zm38 0h19v19h-19zm38 0h19v19h-19zm19 0h19v19h-19zm114 0h19v19h-19zm19 0h19v19h-19zm19 0h19v19h-19zm19 0h19v19h-19zm19 0h19v19h-19zm38 0h19v19h-19zm114 0h19v19h-19zm38 0h19v19h-19zm76 0h19v19h-19zm19 0h19v19h-19zm19 0h19v19h-19zm19 0h19v19h-19zm19 0h19v19h-19zm19 0h19v19h-19zm38 0h19v19h-19zm19 0h19v19h-19zM76 475h19v19H76zm19 0h19v19H95zm19 0h19v19h-19zm76 0h19v19h-19zm57 0h19v19h-19zm19 0h19v19h-19zm19 0h19v19h-19zm19 0h19v19h-19zm19 0h19v19h-19zm19 0h19v19h-19zm19 0h19v19h-19zm19 0h19v19h-19zm19 0h19v19h-19zm19 0h19v19h-19zm19 0h19v19h-19zm19 0h19v19h-19zm76 0h19v19h-19zm19 0h19v19h-19zm19 0h19v19h-19zm19 0h19v19h-19zm19 0h19v19h-19zm19 0h19v19h-19zm57 0h19v19h-19zm38 0h19v19h-19zm57 0h19v19h-19zm19 0h19v19h-19zm76 0h19v19h-19zm57 0h19v19h-19zm-817 19h19v19h-19zm38 0h19v19h-19zm38 0h19v19h-19zm19 0h19v19h-19zm95 0h19v19h-19zm152 0h19v19h-19zm38 0h19v19h-19zm38 0h19v19h-19zm19 0h19v19h-19zm19 0h19v19h-19zm57 0h19v19h-19zm19 0h19v19h-19zm38 0h19v19h-19zm19 0h19v19h-19zm19 0h19v19h-19zm19 0h19v19h-19zm19 0h19v19h-19zm38 0h19v19h-19zm38 0h19v19h-19zm38 0h19v19h-19zm57 0h19v19h-19zM38 513h19v19H38zm38 0h19v19H76zm19 0h19v19H95zm19 0h19v19h-19zm76 0h19v19h-19zm38 0h19v19h-19zm19 0h19v19h-19zm19 0h19v19h-19zm19 0h19v19h-19zm38 0h19v19h-19zm57 0h19v19h-19zm19 0h19v19h-19zm38 0h19v19h-19zm19 0h19v19h-19zm76 0h19v19h-19zm38 0h19v19h-19zm19 0h19v19h-19zm57 0h19v19h-19zm38 0h19v19h-19zm95 0h19v19h-19zm19 0h19v19h-19zm76 0h19v19h-19zm19 0h19v19h-19zm19 0h19v19h-19zm19 0h19v19h-19zm19 0h19v19h-19zM38 532h19v19H38zm19 0h19v19H57zm38 0h19v19H95zm19 0h19v19h-19zm19 0h19v19h-19zm19 0h19v19h-19zm19 0h19v19h-19zm19 0h19v19h-19zm19 0h19v19h-19zm76 0h19v19h-19zm76 0h19v19h-19zm76 0h19v19h-19zm19 0h19v19h-19zm19 0h19v19h-19zm19 0h19v19h-19zm19 0h19v19h-19zm19 0h19v19h-19zm19 0h19v19h-19zm19 0h19v19h-19zm19 0h19v19h-19zm38 0h19v19h-19zm19 0h19v19h-19zm57 0h19v19h-19zm19 0h19v19h-19zm38 0h19v19h-19zm19 0h19v19h-19zm19 0h19v19h-19zm19 0h19v19h-19zm19 0h19v19h-19zm19 0h19v19h-19zm19 0h19v19h-19zm19 0h19v19h-19zm19 0h19v19h-19zm38 0h19v19h-19zM38 551h19v19H38zm19 0h19v19H57zm114 0h19v19h-19zm19 0h19v19h-19zm19 0h19v19h-19zm76 0h19v19h-19zm38 0h19v19h-19zm19 0h19v19h-19zm19 0h19v19h-19zm19 0h19v19h-19zm57 0h19v19h-19zm38 0h19v19h-19zm57 0h19v19h-19zm19 0h19v19h-19zm19 0h19v19h-19zm38 0h19v19h-19zm19 0h19v19h-19zm19 0h19v19h-19zm38 0h19v19h-19zm19 0h19v19h-19zm19 0h19v19h-19zm19 0h19v19h-19zm57 0h19v19h-19zm19 0h19v19h-19zm19 0h19v19h-19zm19 0h19v19h-19zm76 0h19v19h-19zM57 570h19v19H57zm76 0h19v19h-19zm19 0h19v19h-19zm19 0h19v19h-19zm19 0h19v19h-19zm19 0h19v19h-19zm19 0h19v19h-19zm38 0h19v19h-19zm38 0h19v19h-19zm19 0h19v19h-19zm19 0h19v19h-19zm38 0h19v19h-19zm19 0h19v19h-19zm19 0h19v19h-19zm19 0h19v19h-19zm95 0h19v19h-19zm19 0h19v19h-19zm38 0h19v19h-19zm19 0h19v19h-19zm38 0h19v19h-19zm38 0h19v19h-19zm19 0h19v19h-19zm19 0h19v19h-19zm38 0h19v19h-19zm76 0h19v19h-19zm76 0h19v19h-19zm19 0h19v19h-19zm19 0h19v19h-19zM57 589h19v19H57zm76 0h19v19h-19zm133 0h19v19h-19zm38 0h19v19h-19zm57 0h19v19h-19zm76 0h19v19h-19zm95 0h19v19h-19zm19 0h19v19h-19zm38 0h19v19h-19zm38 0h19v19h-19zm76 0h19v19h-19zm19 0h19v19h-19zm38 0h19v19h-19zm38 0h19v19h-19zm38 0h19v19h-19zm38 0h19v19h-19zm19 0h19v19h-19zm57 0h19v19h-19zM38 608h19v19H38zm19 0h19v19H57zm76 0h19v19h-19zm19 0h19v19h-19zm19 0h19v19h-19zm38 0h19v19h-19zm38 0h19v19h-19zm19 0h19v19h-19zm38 0h19v19h-19zm19 0h19v19h-19zm19 0h19v19h-19zm19 0h19v19h-19zm19 0h19v19h-19zm57 0h19v19h-19zm38 0h19v19h-19zm19 0h19v19h-19zm38 0h19v19h-19zm19 0h19v19h-19zm19 0h19v19h-19zm38 0h19v19h-19zm19 0h19v19h-19zm76 0h19v19h-19zm19 0h19v19h-19zm57 0h19v19h-19zm38 0h19v19h-19zm19 0h19v19h-19zm19 0h19v19h-19zm19 0h19v19h-19zm19 0h19v19h-19zm38 0h19v19h-19zm19 0h19v19h-19zM38 627h19v19H38zm19 0h19v19H57zm38 0h19v19H95zm38 0h19v19h-19zm38 0h19v19h-19zm57 0h19v19h-19zm133 0h19v19h-19zm19 0h19v19h-19zm19 0h19v19h-19zm19 0h19v19h-19zm38 0h19v19h-19zm76 0h19v19h-19zm76 0h19v19h-19zm38 0h19v19h-19zm38 0h19v19h-19zm152 0h19v19h-19zm19 0h19v19h-19zm19 0h19v19h-19zm38 0h19v19h-19zm38 0h19v19h-19zM57 646h19v19H57zm19 0h19v19H76zm76 0h19v19h-19zm19 0h19v19h-19zm38 0h19v19h-19zm57 0h19v19h-19zm19 0h19v19h-19zm38 0h19v19h-19zm19 0h19v19h-19zm19 0h19v19h-19zm19 0h19v19h-19zm38 0h19v19h-19zm19 0h19v19h-19zm38 0h19v19h-19zm38 0h19v19h-19zm38 0h19v19h-19zm19 0h19v19h-19zm38 0h19v19h-19zm19 0h19v19h-19zm57 0h19v19h-19zm38 0h19v19h-19zm152 0h19v19h-19zm57 0h19v19h-19zm19 0h19v19h-19zM38 665h19v19H38zm38 0h19v19H76zm19 0h19v19H95zm114 0h19v19h-19zm38 0h19v19h-19zm57 0h19v19h-19zm19 0h19v19h-19zm38 0h19v19h-19zm19 0h19v19h-19zm19 0h19v19h-19zm133 0h19v19h-19zm247 0h19v19h-19zm19 0h19v19h-19zm38 0h19v19h-19zm95 0h19v19h-19zm19 0h19v19h-19zM38 684h19v19H38zm19 0h19v19H57zm19 0h19v19H76zm38 0h19v19h-19zm19 0h19v19h-19zm19 0h19v19h-19zm19 0h19v19h-19zm76 0h19v19h-19zm57 0h19v19h-19zm95 0h19v19h-19zm19 0h19v19h-19zm38 0h19v19h-19zm19 0h19v19h-19zm57 0h19v19h-19zm76 0h19v19h-19zm19 0h19v19h-19zm19 0h19v19h-19zm57 0h19v19h-19zm76 0h19v19h-19zm57 0h19v19h-19zm95 0h19v19h-19zm19 0h19v19h-19zM38 703h19v19H38zm19 0h19v19H57zm19 0h19v19H76zm57 0h19v19h-19zm57 0h19v19h-19zm76 0h19v19h-19zm19 0h19v19h-19zm19 0h19v19h-19zm57 0h19v19h-19zm76 0h19v19h-19zm38 0h19v19h-19zm38 0h19v19h-19zm38 0h19v19h-19zm19 0h19v19h-19zm19 0h19v19h-19zm19 0h19v19h-19zm19 0h19v19h-19zm19 0h19v19h-19zm38 0h19v19h-19zm38 0h19v19h-19zm19 0h19v19h-19zm57 0h19v19h-19zm38 0h19v19h-19zm38 0h19v19h-19zM95 722h19v19H95zm19 0h19v19h-19zm38 0h19v19h-19zm19 0h19v19h-19zm38 0h19v19h-19zm19 0h19v19h-19zm38 0h19v19h-19zm57 0h19v19h-19zm19 0h19v19h-19zm19 0h19v19h-19zm76 0h19v19h-19zm19 0h19v19h-19zm57 0h19v19h-19zm38 0h19v19h-19zm19 0h19v19h-19zm19 0h19v19h-19zm38 0h19v19h-19zm19 0h19v19h-19zm38 0h19v19h-19zm19 0h19v19h-19zm19 0h19v19h-19zm19 0h19v19h-19zm19 0h19v19h-19zm57 0h19v19h-19zm19 0h19v19h-19zm19 0h19v19h-19zm38 0h19v19h-19zm38 0h19v19h-19zM38 741h19v19H38zm38 0h19v19H76zm19 0h19v19H95zm95 0h19v19h-19zm19 0h19v19h-19zm19 0h19v19h-19zm38 0h19v19h-19zm57 0h19v19h-19zm76 0h19v19h-19zm38 0h19v19h-19zm76 0h19v19h-19zm38 0h19v19h-19zm19 0h19v19h-19zm114 0h19v19h-19zm19 0h19v19h-19zm76 0h19v19h-19zm38 0h19v19h-19zm114 0h19v19h-19zm19 0h19v19h-19zM57 760h19v19H57zm76 0h19v19h-19zm19 0h19v19h-19zm19 0h19v19h-19zm19 0h19v19h-19zm38 0h19v19h-19zm38 0h19v19h-19zm38 0h19v19h-19zm38 0h19v19h-19zm38 0h19v19h-19zm57 0h19v19h-19zm19 0h19v19h-19zm19 0h19v19h-19zm19 0h19v19h-19zm19 0h19v19h-19zm38 0h19v19h-19zm19 0h19v19h-19zm57 0h19v19h-19zm76 0h19v19h-19zm19 0h19v19h-19zm38 0h19v19h-19zm19 0h19v19h-19zm38 0h19v19h-19zm19 0h19v19h-19zm19 0h19v19h-19zm19 0h19v19h-19zm38 0h19v19h-19zm38 0h19v19h-19zM57 779h19v19H57zm19 0h19v19H76zm19 0h19v19H95zm95 0h19v19h-19zm19 0h19v19h-19zm133 0h19v19h-19zm38 0h19v19h-19zm19 0h19v19h-19zm38 0h19v19h-19zm38 0h19v19h-19zm19 0h19v19h-19zm19 0h19v19h-19zm19 0h19v19h-19zm38 0h19v19h-19zm38 0h19v19h-19zm19 0h19v19h-19zm19 0h19v19h-19zm19 0h19v19h-19zm19 0h19v19h-19zm19 0h19v19h-19zm19 0h19v19h-19zm38 0h19v19h-19zm38 0h19v19h-19zm38 0h19v19h-19zm19 0h19v19h-19zM38 798h19v19H38zm19 0h19v19H57zm19 0h19v19H76zm76 0h19v19h-19zm19 0h19v19h-19zm57 0h19v19h-19zm19 0h19v19h-19zm19 0h19v19h-19zm38 0h19v19h-19zm38 0h19v19h-19zm38 0h19v19h-19zm19 0h19v19h-19zm38 0h19v19h-19zm19 0h19v19h-19zm19 0h19v19h-19zm19 0h19v19h-19zm19 0h19v19h-19zm19 0h19v19h-19zm19 0h19v19h-19zm95 0h19v19h-19zm19 0h19v19h-19zm19 0h19v19h-19zm19 0h19v19h-19zm19 0h19v19h-19zm19 0h19v19h-19zm57 0h19v19h-19zm19 0h19v19h-19zm19 0h19v19h-19zm19 0h19v19h-19zm19 0h19v19h-19zm19 0h19v19h-19zm19 0h19v19h-19zm38 0h19v19h-19zm-760 19h19v19h-19zm38 0h19v19h-19zm38 0h19v19h-19zm95 0h19v19h-19zm57 0h19v19h-19zm38 0h19v19h-19zm76 0h19v19h-19zm19 0h19v19h-19zm19 0h19v19h-19zm19 0h19v19h-19zm57 0h19v19h-19zm114 0h19v19h-19zm38 0h19v19h-19zm76 0h19v19h-19zm19 0h19v19h-19zm19 0h19v19h-19zm19 0h19v19h-19zm19 0h19v19h-19zm-741 19h19v19h-19zm19 0h19v19h-19zm19 0h19v19h-19zm19 0h19v19h-19zm38 0h19v19h-19zm19 0h19v19h-19zm57 0h19v19h-19zm19 0h19v19h-19zm57 0h19v19h-19zm38 0h19v19h-19zm38 0h19v19h-19zm38 0h19v19h-19zm133 0h19v19h-19zm19 0h19v19h-19zm57 0h19v19h-19zm19 0h19v19h-19zm38 0h19v19h-19zm38 0h19v19h-19zm19 0h19v19h-19zm19 0h19v19h-19zm19 0h19v19h-19zm19 0h19v19h-19zm-760 19h19v19h-19zm38 0h19v19h-19zm38 0h19v19h-19zm19 0h19v19h-19zm19 0h19v19h-19zm19 0h19v19h-19zm38 0h19v19h-19zm38 0h19v19h-19zm19 0h19v19h-19zm19 0h19v19h-19zm19 0h19v19h-19zm76 0h19v19h-19zm76 0h19v19h-19zm38 0h19v19h-19zm19 0h19v19h-19zm38 0h19v19h-19zm19 0h19v19h-19zm19 0h19v19h-19zm19 0h19v19h-19zm38 0h19v19h-19zm76 0h19v19h-19zm38 0h19v19h-19zm-703 19h19v19h-19zm38 0h19v19h-19zm95 0h19v19h-19zm57 0h19v19h-19zm38 0h19v19h-19zm19 0h19v19h-19zm19 0h19v19h-19zm19 0h19v19h-19zm19 0h19v19h-19zm19 0h19v19h-19zm19 0h19v19h-19zm19 0h19v19h-19zm95 0h19v19h-19zm19 0h19v19h-19zm38 0h19v19h-19zm19 0h19v19h-19zm38 0h19v19h-19zm19 0h19v19h-19zm19 0h19v19h-19zm19 0h19v19h-19zm19 0h19v19h-19zm19 0h19v19h-19zm76 0h19v19h-19zm-760 19h19v19h-19zm38 0h19v19h-19zm76 0h19v19h-19zm19 0h19v19h-19zm19 0h19v19h-19zm38 0h19v19h-19zm19 0h19v19h-19zm57 0h19v19h-19zm19 0h19v19h-19zm19 0h19v19h-19zm19 0h19v19h-19zm57 0h19v19h-19zm133 0h19v19h-19zm19 0h19v19h-19zm57 0h19v19h-19zm19 0h19v19h-19zm76 0h19v19h-19zm38 0h19v19h-19zm-684 19h19v19h-19zm19 0h19v19h-19zm19 0h19v19h-19zm19 0h19v19h-19zm38 0h19v19h-19zm57 0h19v19h-19zm38 0h19v19h-19zm57 0h19v19h-19zm19 0h19v19h-19zm38 0h19v19h-19zm57 0h19v19h-19zm57 0h19v19h-19zm38 0h19v19h-19zm19 0h19v19h-19zm76 0h19v19h-19zm57 0h19v19h-19zm38 0h19v19h-19zm19 0h19v19h-19zm19 0h19v19h-19zm-703 19h19v19h-19zm19 0h19v19h-19zm38 0h19v19h-19zm38 0h19v19h-19zm38 0h19v19h-19zm19 0h19v19h-19zm19 0h19v19h-19zm19 0h19v19h-19zm19 0h19v19h-19zm57 0h19v19h-19zm19 0h19v19h-19zm19 0h19v19h-19zm19 0h19v19h-19zm19 0h19v19h-19zm19 0h19v19h-19zm19 0h19v19h-19zm19 0h19v19h-19zm19 0h19v19h-19zm38 0h19v19h-19zm57 0h19v19h-19zm19 0h19v19h-19zm38 0h19v19h-19zm76 0h19v19h-19zm19 0h19v19h-19zm19 0h19v19h-19zm-703 19h19v19h-19zm57 0h19v19h-19zm133 0h19v19h-19zm57 0h19v19h-19zm19 0h19v19h-19zm19 0h19v19h-19zm38 0h19v19h-19zm38 0h19v19h-19zm19 0h19v19h-19zm19 0h19v19h-19zm19 0h19v19h-19zm19 0h19v19h-19zm19 0h19v19h-19zm76 0h19v19h-19zm19 0h19v19h-19zm19 0h19v19h-19zm19 0h19v19h-19zm19 0h19v19h-19zm19 0h19v19h-19zm57 0h19v19h-19zm57 0h19v19h-19zm19 0h19v19h-19z"/>
  <path fill="none" d="M58 58h93v93H58z"/>
  <path d="M151 38H38v133h133V38h-20zm0 113H58V58h93v93z"/>
  <path fill="none" d="M856 58h93v93h-93z"/>
  <path d="M949 38H836v133h133V38h-20zm0 113h-93V58h93v93z"/>
  <path fill="none" d="M58 856h93v93H58z"/>
  <path d="M151 836H38v133h133V836h-20zm0 113H58v-93h93v93zM76 76h57v57H76zm798 0h57v57h-57z"/>
  <path d="M76 874h57v57H76z"/>
</svg>
