<svg xmlns="http://www.w3.org/2000/svg" width="683" height="663" fill="none" viewBox="0 0 683 663">
  <path fill="#D9D9D9" d="M372.8 9.4A77.5 77.5 0 0 1 465 32.6a77.5 77.5 0 0 0 56.4 29.6l2 .1a75.1 75.1 0 0 1 69.6 61.8 75.1 75.1 0 0 0 36 51.7l2.1 1.2a72.8 72.8 0 0 1 32.3 85.7 73.3 73.3 0 0 0 7.8 62.1c18.5 29.3 14 68-11.3 91.8a72.3 72.3 0 0 0-22.5 58 72.2 72.2 0 0 1-52.5 75l-1.7.5a73.8 73.8 0 0 0-47.5 41 73.8 73.8 0 0 1-81.9 42l-2.5-.4a76.5 76.5 0 0 0-61.7 14.3 76.5 76.5 0 0 1-94.1-.6l-.9-.7a77.9 77.9 0 0 0-62-15.6l-1 .2a76.5 76.5 0 0 1-83.2-44 76.5 76.5 0 0 0-47.6-41.8l-2.4-.8a73.8 73.8 0 0 1-52.2-75.9 73.8 73.8 0 0 0-22.4-58.4l-1.3-1.3a72.2 72.2 0 0 1-10.8-91 72.3 72.3 0 0 0 7.6-61.7A72.8 72.8 0 0 1 53 169.2a73.3 73.3 0 0 0 36.2-51 72.8 72.8 0 0 1 69-60.2h2.5c22-.9 42.5-11.3 56.2-28.5a75.1 75.1 0 0 1 90.4-21.6l1.9.9a77.5 77.5 0 0 0 63.7.6Z"/>
</svg>
