<svg width="652" height="440" viewBox="0 0 652 440" fill="none" xmlns="http://www.w3.org/2000/svg">
<path d="M390.938 3.68329C387.072 6.88329 382.672 7.14996 370.805 4.61663C366.672 3.68329 366.538 3.81663 365.738 9.68329C365.205 13.0166 364.138 16.35 363.205 17.0166C360.272 19.2833 354.005 19.6833 350.405 17.8166C346.272 15.55 332.138 15.2833 330.805 17.4166C330.405 18.2166 328.272 18.6166 326.138 18.0833C321.605 17.15 318.272 18.2166 318.272 20.6166C318.272 21.55 316.138 24.6166 313.605 27.4166C311.072 30.35 308.938 33.2833 308.938 34.2166C308.938 35.15 307.738 38.35 306.138 41.2833C304.272 44.8833 303.738 47.15 304.672 48.35C306.938 51.2833 307.872 59.4166 305.872 61.0166C303.738 62.8833 302.005 61.6833 299.872 56.8833C298.938 54.75 296.272 52.35 293.738 51.2833C289.738 49.55 288.538 49.55 284.538 51.2833C280.405 53.0166 279.605 53.0166 278.272 51.2833C276.938 49.8166 276.005 49.6833 273.738 50.8833C272.272 51.6833 270.672 52.75 270.272 53.2833C269.872 53.95 268.405 54.6166 266.938 54.8833C264.938 55.15 264.005 54.0833 262.538 49.95C261.605 47.0166 260.005 43.8166 258.938 42.75C257.205 41.0166 256.672 41.15 254.538 43.0166C253.205 44.2166 251.072 45.2833 250.005 45.2833C248.805 45.2833 246.538 46.8833 245.072 48.8833C242.538 52.4833 242.405 52.4833 242.272 49.6833C242.272 46.2166 238.538 43.8166 234.672 44.75C232.805 45.2833 231.205 44.4833 229.738 42.4833L227.605 39.4166L224.405 42.4833C221.205 45.55 220.938 45.55 217.605 43.4166C215.605 42.0833 213.872 41.2833 213.738 41.55C213.605 41.8166 212.805 43.4166 212.005 45.2833C210.538 48.35 210.405 48.35 210.405 45.8166C210.272 42.4833 204.672 39.6833 200.405 40.75C198.405 41.15 196.672 40.4833 195.072 38.75C193.605 37.15 192.938 35.95 193.605 35.95C194.138 35.95 193.872 35.0166 192.938 33.95C191.738 32.4833 190.005 32.0833 187.472 32.6166C185.072 33.15 182.538 32.75 180.672 31.4166C179.072 30.2166 175.738 29.2833 173.338 29.2833C171.072 29.2833 168.672 28.6166 168.272 27.95C167.872 27.15 166.272 26.6166 164.672 26.6166C163.205 26.6166 160.405 25.8166 158.538 24.75C153.472 21.95 147.738 20.75 142.272 21.15C139.605 21.2833 134.805 20.4833 131.338 19.4166C126.538 17.6833 124.272 17.55 121.338 18.75C119.338 19.55 115.205 19.95 112.272 19.8166C99.2051 19.15 96.9384 19.6833 95.4718 23.55C93.4718 29.55 82.5384 35.55 80.2718 31.95C79.8718 31.15 77.6051 30.6166 75.4718 30.6166C70.2718 30.6166 67.7384 35.55 70.1384 40.75C71.3384 43.4166 71.3384 44.75 70.1384 46.0833C68.4051 48.2166 69.8718 52.0833 74.5384 58.4833C75.8718 60.2166 76.9384 63.15 76.9384 64.8833C76.9384 66.75 78.1384 69.95 79.7384 72.0833C82.1384 75.55 82.1384 75.95 80.2718 75.95C78.4051 75.95 78.1384 76.75 78.9384 79.55C81.0718 88.6166 81.2051 91.6833 78.9384 95.15C77.2051 97.6833 75.4718 98.6166 72.2718 98.6166C69.2051 98.6166 66.9384 99.55 65.3384 101.55C64.0051 103.283 59.8718 107.017 56.2718 109.817C52.5384 112.75 44.0051 120.75 37.3384 127.683C24.4051 141.017 23.6051 142.617 26.1384 151.417C26.9384 154.217 26.8051 156.483 25.6051 158.75C24.0051 161.55 24.1384 162.35 26.5384 164.883C30.1384 168.75 29.2051 169.683 24.4051 167.283C19.4718 164.75 16.8051 164.75 17.7384 167.283C18.2718 168.35 17.6051 169.55 16.5384 170.083C15.4718 170.483 13.2051 173.95 11.6051 177.683C10.0051 181.55 6.93843 186.35 4.93843 188.617C0.405094 193.55 -1.59491 200.883 1.47176 202.083C2.53843 202.483 3.87176 204.617 4.27176 206.75C4.93843 209.417 6.40509 211.283 8.53843 212.083C10.4051 212.75 12.5384 215.017 13.3384 217.283C14.4051 220.217 15.7384 221.283 18.9384 221.55C22.2718 221.95 22.9384 222.483 22.9384 225.55C22.8051 228.883 23.2051 229.15 26.9384 228.617C29.0718 228.35 31.3384 228.083 32.0051 228.083C32.5384 227.95 32.9384 227.15 32.9384 226.083C32.9384 222.35 35.4718 222.617 40.0051 226.617C42.8051 229.017 46.1384 230.617 48.4051 230.617C50.5384 230.617 54.0051 231.55 56.1384 232.617C58.1384 233.683 61.6051 234.617 63.7384 234.617C65.7384 234.617 67.8718 235.283 68.2718 235.95C68.8051 236.883 72.4051 237.017 77.7384 236.483C85.3384 235.683 86.2718 235.817 87.2051 238.083C88.5384 241.817 97.6051 250.617 100.138 250.617C101.472 250.617 104.405 248.35 106.938 245.683C111.338 240.883 112.005 240.617 120.538 240.35C125.605 240.217 133.472 239.683 138.005 239.15C145.872 238.35 146.672 237.95 148.538 233.817C150.805 229.283 154.138 227.283 162.672 225.817C166.272 225.15 168.138 224.083 168.938 221.95C170.005 219.283 170.938 219.017 177.872 219.283C182.138 219.417 186.138 219.283 186.938 218.883C187.605 218.483 192.005 217.95 196.538 217.95C203.738 217.683 205.205 218.083 207.472 220.883C209.072 222.483 211.072 223.95 212.138 223.95C213.072 223.95 214.272 225.15 214.672 226.617C215.205 228.617 216.538 229.283 219.605 229.283C222.672 229.283 223.738 229.817 223.205 231.15C222.805 232.083 224.138 234.217 226.272 235.817L230.138 238.617L230.938 235.817C231.472 234.083 232.538 233.417 233.872 233.817C234.938 234.217 236.805 234.617 238.138 234.617C239.472 234.617 241.338 236.617 242.672 239.817C245.205 245.55 248.272 247.55 251.072 245.283C255.072 241.95 257.072 255.95 253.605 262.617C251.205 267.15 252.672 272.617 256.672 273.817C258.005 274.35 259.872 276.217 260.805 278.083C262.005 280.883 262.938 281.417 265.605 280.75C268.672 279.95 268.805 280.217 268.005 284.217C267.605 286.617 266.538 289.017 265.872 289.417C264.138 290.617 266.138 293.55 267.872 292.483C268.805 291.95 268.938 293.017 268.405 295.55C267.605 298.75 268.138 299.817 271.205 302.083C273.205 303.55 276.005 305.15 277.338 305.683C281.205 307.15 284.405 319.95 280.938 319.95C278.538 319.95 279.605 323.017 283.205 326.883L286.805 330.617H282.672C279.872 330.617 278.005 329.683 276.538 327.55C274.672 324.75 274.538 324.617 271.872 327.017C268.938 329.683 266.272 329.15 266.272 325.817C266.272 324.217 265.338 323.95 262.005 324.617C259.605 325.15 257.205 326.35 256.672 327.15C256.138 327.95 255.605 327.017 255.605 324.883C255.605 320.75 254.672 320.483 248.405 323.15C244.672 324.75 243.872 325.817 243.072 330.617C242.538 333.95 242.805 336.883 243.605 337.95C244.405 339.017 244.672 341.95 244.138 345.15C243.338 349.95 242.672 350.883 239.472 351.55C236.272 352.217 235.605 353.017 235.605 356.217C235.605 359.15 234.538 360.617 231.072 362.75C225.738 365.817 224.672 367.817 225.872 373.283L226.672 377.417L221.338 376.483C217.472 375.95 215.738 376.217 214.405 377.683C211.738 380.883 218.005 389.683 224.805 392.483C231.872 395.283 236.938 395.283 236.938 392.483C236.938 391.017 237.738 390.75 239.472 391.283C241.072 391.683 244.672 390.483 248.805 387.95C256.538 383.417 259.338 383.017 264.805 385.95C268.938 387.95 270.538 390.883 269.472 393.817C269.072 394.883 269.338 396.083 270.138 396.483C272.138 397.683 274.272 392.883 274.272 387.417C274.272 383.417 273.738 382.617 271.472 382.617C268.672 382.617 268.672 382.483 270.938 379.017C273.072 375.95 273.072 375.683 271.072 376.35C269.338 377.017 268.938 376.217 268.938 371.95C268.938 369.15 269.605 366.35 270.538 365.817C271.338 365.283 271.605 365.417 271.072 366.35C269.872 368.483 272.538 374.617 274.805 374.617C280.672 374.617 305.072 348.75 309.738 337.683C310.805 335.417 312.138 333.15 312.938 332.617C313.605 332.217 314.272 330.083 314.272 328.083C314.272 325.017 315.205 323.95 319.338 322.217C324.405 320.083 341.605 317.95 350.672 318.35L355.605 318.617L355.738 312.217L355.872 305.95L357.472 311.017C359.205 316.617 364.405 321.683 367.338 320.617C370.138 319.55 375.605 321.417 375.605 323.283C375.605 325.95 373.605 326.75 370.005 325.417C368.405 324.883 362.005 323.95 356.005 323.417C346.405 322.617 344.938 322.75 344.938 324.483C344.938 325.683 345.338 326.617 346.005 326.75C346.538 326.75 349.472 327.017 352.538 327.283C362.138 328.083 363.872 330.75 356.272 333.283C350.805 335.017 350.138 337.283 354.938 337.283C358.272 337.283 360.672 338.483 370.538 345.017C374.538 347.55 376.538 348.083 380.538 347.417C383.338 347.017 389.605 346.083 394.405 345.417C399.338 344.883 404.005 343.95 404.805 343.417C405.605 342.883 408.672 343.817 411.605 345.55L417.072 348.617L419.472 345.417L421.872 342.217L422.672 345.417C423.205 347.15 423.605 349.95 423.605 351.683C423.605 353.417 424.138 354.35 424.938 353.95C425.738 353.55 426.272 353.817 426.272 354.483C426.272 355.283 424.005 356.75 421.338 357.95C418.538 359.017 415.338 360.483 414.272 361.15C413.205 361.95 408.805 364.217 404.672 366.483C400.405 368.617 395.338 371.683 393.338 373.283C391.205 374.75 387.472 377.417 384.938 379.017C376.138 384.75 379.738 392.617 389.472 389.15C395.072 387.15 401.072 389.15 404.405 394.217C406.272 397.15 407.205 397.55 411.738 396.883C415.738 396.35 417.472 396.883 420.005 399.15C423.872 402.75 425.872 411.283 423.472 414.217C422.538 415.283 421.872 418.217 422.005 420.617C422.272 423.95 421.605 425.683 419.472 427.15C415.872 429.683 416.938 432.883 421.738 434.083C423.738 434.617 426.405 436.083 427.605 437.283C434.005 443.683 450.272 437.15 456.005 425.817C460.405 417.15 473.872 410.75 481.338 413.95C482.938 414.617 483.605 414.35 483.605 413.017C483.605 410.75 487.472 406.883 491.872 404.75C493.605 403.95 495.205 402.083 495.472 400.617C495.738 399.15 496.538 397.55 497.472 397.017C500.272 395.15 506.272 395.95 508.938 398.617C511.205 400.883 512.672 401.15 519.338 400.483C523.472 399.95 528.938 398.75 531.338 397.683C535.205 395.817 535.605 395.15 534.805 391.283C534.405 388.883 534.672 385.683 535.472 384.217C537.872 379.55 534.405 378.217 523.072 379.283C514.272 380.083 513.072 379.817 511.872 377.683C510.538 375.55 510.005 375.683 505.872 380.217C498.138 388.617 494.805 387.15 482.272 369.817C473.472 357.817 468.938 347.95 468.938 341.283C468.938 338.217 469.872 336.883 473.338 335.15C479.872 331.817 482.272 329.283 482.405 325.417L482.538 321.95L484.272 325.95C486.538 331.017 483.872 337.017 477.872 340.483C475.205 342.083 474.272 343.15 475.338 343.55C477.738 344.483 483.338 339.017 486.538 332.617C488.005 329.683 493.072 323.55 497.872 319.017C506.538 310.617 512.138 308.083 518.538 309.683C520.672 310.217 522.805 309.15 526.538 305.95C530.672 302.083 532.672 301.283 537.605 301.283C540.938 301.283 543.605 300.617 543.605 299.95C543.605 297.55 555.872 290.617 558.805 291.283C560.938 291.817 562.272 290.883 564.538 286.75C566.938 282.483 568.405 281.417 572.538 280.883C575.338 280.483 579.605 279.683 582.005 279.15C584.672 278.617 587.072 278.883 588.138 279.95C589.738 281.15 590.538 280.75 592.272 278.083C593.472 276.217 594.138 274.083 593.738 273.417C593.205 272.617 593.605 270.883 594.538 269.417C595.605 267.683 595.738 266.217 594.805 265.017C594.005 264.083 593.738 260.217 594.005 256.35C594.538 249.683 594.672 249.283 599.338 247.817C606.805 245.417 610.138 242.483 610.272 238.35C610.272 234.217 614.272 231.283 618.405 232.35C622.938 233.55 645.205 231.15 646.272 229.283C646.805 228.35 647.338 224.083 647.338 219.683C647.338 214.75 648.138 210.75 649.472 208.617C652.138 204.617 652.138 202.617 649.605 202.617C648.538 202.617 647.605 201.95 647.605 201.017C647.605 197.15 641.872 187.95 639.472 187.95C636.538 187.95 636.405 187.15 638.405 181.417C639.605 178.083 640.672 177.283 643.605 177.283C647.472 177.283 651.072 174.35 649.738 172.083C649.338 171.417 646.805 170.883 644.138 170.883C638.272 170.883 633.738 167.283 636.938 165.283C638.005 164.617 640.005 163.95 641.338 163.95C642.538 163.95 643.605 163.017 643.605 161.683C643.605 160.483 645.072 157.55 646.938 155.15C651.072 149.817 651.205 145.683 647.338 141.683C644.805 138.883 644.538 138.083 646.138 135.683C648.938 131.283 645.872 129.55 640.538 132.35C635.072 135.417 629.338 134.217 627.338 129.817C625.872 126.483 624.272 125.95 618.005 126.483C615.872 126.617 614.272 126.217 614.272 125.417C614.272 124.75 613.338 123.15 612.138 122.083C610.272 120.083 609.738 120.217 606.805 122.483C603.605 125.017 603.338 125.017 599.205 122.883C596.805 121.683 594.538 119.95 593.872 119.017C593.338 118.083 591.205 117.683 588.405 118.217C584.938 118.75 583.338 118.217 581.205 115.95C577.738 112.217 572.938 113.417 572.938 118.083C572.938 121.95 571.072 122.083 566.672 118.617C564.805 117.15 562.405 115.95 561.472 115.95C559.205 115.95 554.272 109.55 554.272 106.617C554.272 105.283 552.805 103.283 550.938 102.083C549.072 100.883 547.605 99.0166 547.605 97.95C547.605 95.0166 544.672 95.55 539.605 99.2833C537.072 101.15 533.472 102.617 531.605 102.617C528.138 102.617 522.805 105.55 520.005 109.017C518.538 110.883 518.005 110.75 515.605 108.617C514.005 107.15 511.872 106.617 510.138 107.017C508.138 107.55 506.405 106.75 504.272 104.217C500.538 99.8166 493.072 99.6833 487.472 103.817C485.338 105.417 483.605 106.217 483.605 105.55C483.605 104.883 481.872 102.483 479.605 100.217C475.338 95.6833 474.672 93.4166 477.072 91.0166C478.272 89.8166 477.738 87.55 475.072 82.0833C472.805 77.4166 471.738 73.55 472.272 71.95C472.938 69.6833 472.538 69.2833 469.072 69.2833C465.738 69.2833 465.072 68.6166 464.272 65.2833C463.338 60.8833 460.538 60.2166 453.205 62.75C449.738 63.95 448.538 63.8166 446.805 62.0833C445.605 60.8833 442.538 59.95 439.472 59.95C434.805 59.95 434.138 59.6833 434.938 57.4166C435.338 55.95 435.072 54.4833 434.272 53.95C433.605 53.55 432.938 51.55 432.938 49.55C432.938 47.55 432.005 44.4833 430.805 42.8833C428.272 39.2833 429.072 37.6833 434.272 36.6166C440.272 35.2833 439.605 30.8833 432.272 24.8833C427.605 21.0166 426.272 18.8833 426.272 15.95C426.272 13.2833 424.672 10.0833 421.338 6.34996C418.538 3.14996 416.272 0.349961 416.005 0.0832944C415.872 -0.183372 414.005 0.216628 412.005 0.883294C410.005 1.68329 405.205 1.81663 401.472 1.41663C395.472 0.616628 394.138 0.883294 390.938 3.68329Z" fill="currentColor"/>
<path d="M340.938 335.283C340.938 336.35 342.005 337.817 343.338 338.483C346.938 340.35 365.472 345.283 366.272 344.483C367.472 343.15 363.072 341.55 354.538 339.95C348.938 338.883 345.605 337.417 344.538 335.817C342.672 332.75 340.938 332.483 340.938 335.283Z" fill="currentColor"/>
<path d="M386.271 349.283C386.271 349.95 389.605 350.616 393.738 350.616C398.271 350.616 400.805 350.083 400.271 349.283C399.871 348.483 396.538 347.95 392.805 347.95C389.205 347.95 386.271 348.483 386.271 349.283Z" fill="currentColor"/>
</svg>
