<svg width="294" height="94" viewBox="0 0 294 94" fill="none" xmlns="http://www.w3.org/2000/svg">
<rect x="0.0898438" y="0.081543" width="293.869" height="93.2251" rx="46.6126" fill="#F4F4F4"/>
<rect x="0.0898438" y="0.081543" width="293.869" height="93.2251" rx="46.6126" fill="#DCFF77"/>
<path d="M72.2395 55.0815L77.0653 39.2881H81.5181L86.3439 55.0815H83.273L78.9736 41.1526H79.5439L75.3104 55.0815H72.2395ZM75.135 51.7912V49.0055H83.4704V51.7912H75.135ZM93.1135 55.4106C92.0241 55.4106 91.0699 55.1364 90.251 54.588C89.432 54.0396 88.7923 53.2938 88.3316 52.3506C87.8783 51.4074 87.6516 50.3435 87.6516 49.159C87.6516 47.9526 87.8819 46.8814 88.3426 45.9455C88.8105 45.0023 89.4649 44.2601 90.3058 43.719C91.1466 43.178 92.1337 42.9074 93.2671 42.9074C94.3931 42.9074 95.34 43.1816 96.1077 43.73C96.8754 44.2784 97.4567 45.0242 97.8515 45.9674C98.2464 46.9106 98.4438 47.9745 98.4438 49.159C98.4438 50.3435 98.2427 51.4074 97.8406 52.3506C97.4457 53.2938 96.8535 54.0396 96.0638 54.588C95.2741 55.1364 94.2907 55.4106 93.1135 55.4106ZM93.5961 52.7564C94.2615 52.7564 94.7916 52.6065 95.1864 52.3067C95.5886 52.0069 95.8774 51.5865 96.0528 51.0454C96.2283 50.5044 96.3161 49.8756 96.3161 49.159C96.3161 48.4425 96.2283 47.8136 96.0528 47.2726C95.8774 46.7315 95.5959 46.3111 95.2083 46.0113C94.8281 45.7115 94.3273 45.5616 93.7058 45.5616C93.0404 45.5616 92.492 45.7261 92.0606 46.0552C91.6365 46.3769 91.3221 46.8119 91.1174 47.3603C90.9127 47.9014 90.8103 48.5009 90.8103 49.159C90.8103 49.8244 90.909 50.4313 91.1064 50.9796C91.3039 51.5207 91.6073 51.9521 92.0167 52.2738C92.4262 52.5955 92.9527 52.7564 93.5961 52.7564ZM96.3161 55.0815V46.9655H95.9432V39.2881H98.9483V55.0815H96.3161ZM106.823 55.4106C105.734 55.4106 104.779 55.1364 103.961 54.588C103.142 54.0396 102.502 53.2938 102.041 52.3506C101.588 51.4074 101.361 50.3435 101.361 49.159C101.361 47.9526 101.592 46.8814 102.052 45.9455C102.52 45.0023 103.175 44.2601 104.015 43.719C104.856 43.178 105.843 42.9074 106.977 42.9074C108.103 42.9074 109.05 43.1816 109.817 43.73C110.585 44.2784 111.166 45.0242 111.561 45.9674C111.956 46.9106 112.153 47.9745 112.153 49.159C112.153 50.3435 111.952 51.4074 111.55 52.3506C111.155 53.2938 110.563 54.0396 109.773 54.588C108.984 55.1364 108 55.4106 106.823 55.4106ZM107.306 52.7564C107.971 52.7564 108.501 52.6065 108.896 52.3067C109.298 52.0069 109.587 51.5865 109.762 51.0454C109.938 50.5044 110.026 49.8756 110.026 49.159C110.026 48.4425 109.938 47.8136 109.762 47.2726C109.587 46.7315 109.305 46.3111 108.918 46.0113C108.538 45.7115 108.037 45.5616 107.415 45.5616C106.75 45.5616 106.202 45.7261 105.77 46.0552C105.346 46.3769 105.032 46.8119 104.827 47.3603C104.622 47.9014 104.52 48.5009 104.52 49.159C104.52 49.8244 104.619 50.4313 104.816 50.9796C105.013 51.5207 105.317 51.9521 105.726 52.2738C106.136 52.5955 106.662 52.7564 107.306 52.7564ZM110.026 55.0815V46.9655H109.653V39.2881H112.658V55.0815H110.026ZM124.749 55.4106C123.257 55.4106 122.05 55.0742 121.129 54.4015C120.215 53.7216 119.66 52.7637 119.462 51.528L122.511 51.0674C122.635 51.6231 122.91 52.0581 123.334 52.3725C123.765 52.6869 124.31 52.8441 124.968 52.8441C125.509 52.8441 125.926 52.7418 126.218 52.537C126.511 52.325 126.657 52.0325 126.657 51.6596C126.657 51.4257 126.598 51.2392 126.481 51.1003C126.364 50.954 126.101 50.8115 125.692 50.6725C125.29 50.5336 124.661 50.3508 123.805 50.1242C122.84 49.8756 122.069 49.5977 121.491 49.2906C120.914 48.9835 120.497 48.6179 120.241 48.1939C119.985 47.7625 119.857 47.2433 119.857 46.6364C119.857 45.876 120.051 45.218 120.438 44.6623C120.826 44.0993 121.37 43.6679 122.072 43.3681C122.782 43.061 123.615 42.9074 124.573 42.9074C125.502 42.9074 126.324 43.05 127.041 43.3352C127.757 43.6203 128.335 44.0261 128.774 44.5526C129.22 45.079 129.494 45.7005 129.596 46.4171L126.547 46.9655C126.496 46.5268 126.306 46.1795 125.977 45.9235C125.648 45.6676 125.202 45.5177 124.639 45.4739C124.09 45.4373 123.648 45.5104 123.312 45.6932C122.983 45.876 122.818 46.1392 122.818 46.4829C122.818 46.6876 122.888 46.8595 123.027 46.9984C123.173 47.1373 123.469 47.2799 123.915 47.4261C124.368 47.5724 125.056 47.7625 125.977 47.9964C126.876 48.2304 127.596 48.5046 128.138 48.819C128.686 49.1261 129.084 49.499 129.333 49.9377C129.582 50.3691 129.706 50.8919 129.706 51.5061C129.706 52.7198 129.267 53.674 128.39 54.3686C127.512 55.0633 126.299 55.4106 124.749 55.4106ZM137.929 55.4106C136.752 55.4106 135.768 55.1364 134.979 54.588C134.189 54.0396 133.593 53.2938 133.191 52.3506C132.796 51.4074 132.599 50.3435 132.599 49.159C132.599 47.9745 132.796 46.9106 133.191 45.9674C133.586 45.0242 134.167 44.2784 134.935 43.73C135.702 43.1816 136.649 42.9074 137.775 42.9074C138.909 42.9074 139.896 43.178 140.737 43.719C141.577 44.2601 142.228 45.0023 142.689 45.9455C143.157 46.8814 143.391 47.9526 143.391 49.159C143.391 50.3435 143.16 51.4074 142.7 52.3506C142.247 53.2938 141.61 54.0396 140.791 54.588C139.973 55.1364 139.018 55.4106 137.929 55.4106ZM132.094 60.346V43.2365H134.726V51.3525H135.099V60.346H132.094ZM137.446 52.7564C138.09 52.7564 138.616 52.5955 139.026 52.2738C139.435 51.9521 139.739 51.5207 139.936 50.9796C140.133 50.4313 140.232 49.8244 140.232 49.159C140.232 48.5009 140.13 47.9014 139.925 47.3603C139.72 46.8119 139.402 46.3769 138.971 46.0552C138.547 45.7261 138.002 45.5616 137.337 45.5616C136.715 45.5616 136.211 45.7115 135.823 46.0113C135.443 46.3111 135.165 46.7315 134.99 47.2726C134.814 47.8136 134.726 48.4425 134.726 49.159C134.726 49.8756 134.814 50.5044 134.99 51.0454C135.165 51.5865 135.45 52.0069 135.845 52.3067C136.247 52.6065 136.781 52.7564 137.446 52.7564ZM151.31 55.4106C150.096 55.4106 149.025 55.151 148.096 54.6319C147.175 54.1054 146.451 53.3852 145.925 52.4712C145.406 51.55 145.146 50.4971 145.146 49.3126C145.146 48.0184 145.402 46.8924 145.914 45.9345C146.426 44.9767 147.131 44.2345 148.031 43.7081C148.93 43.1743 149.965 42.9074 151.134 42.9074C152.377 42.9074 153.434 43.1999 154.304 43.7849C155.174 44.3698 155.818 45.1924 156.234 46.2526C156.651 47.3128 156.797 48.5594 156.673 49.9925H153.723V48.8958C153.723 47.6893 153.529 46.8229 153.142 46.2964C152.761 45.7627 152.136 45.4958 151.266 45.4958C150.25 45.4958 149.5 45.8066 149.018 46.4281C148.542 47.0422 148.305 47.9526 148.305 49.159C148.305 50.2631 148.542 51.1186 149.018 51.7254C149.5 52.325 150.206 52.6248 151.134 52.6248C151.719 52.6248 152.22 52.4968 152.637 52.2409C153.054 51.985 153.372 51.6158 153.591 51.1332L156.574 51.9887C156.128 53.0708 155.423 53.9117 154.458 54.5112C153.5 55.1108 152.451 55.4106 151.31 55.4106ZM147.384 49.9925V47.7771H155.236V49.9925H147.384ZM166.901 55.0815V49.488C166.901 49.2175 166.886 48.8738 166.857 48.4571C166.827 48.033 166.736 47.6089 166.582 47.1848C166.429 46.7607 166.177 46.4061 165.826 46.121C165.482 45.8358 164.992 45.6932 164.356 45.6932C164.1 45.6932 163.826 45.7334 163.533 45.8139C163.241 45.8943 162.967 46.0515 162.711 46.2855C162.455 46.5121 162.243 46.8485 162.075 47.2945C161.914 47.7405 161.833 48.3328 161.833 49.0713L160.122 48.2597C160.122 47.3238 160.313 46.4463 160.693 45.6274C161.073 44.8085 161.643 44.1468 162.404 43.6423C163.171 43.1378 164.137 42.8855 165.299 42.8855C166.228 42.8855 166.985 43.0427 167.57 43.3571C168.154 43.6715 168.608 44.07 168.93 44.5526C169.259 45.0352 169.493 45.5397 169.631 46.0661C169.77 46.5853 169.854 47.0605 169.884 47.4919C169.913 47.9233 169.928 48.2377 169.928 48.4351V55.0815H166.901ZM158.806 55.0815V43.2365H161.461V47.1629H161.833V55.0815H158.806ZM179.881 55.0815C179.062 55.2351 178.257 55.3009 177.468 55.279C176.685 55.2643 175.983 55.1291 175.362 54.8732C174.748 54.6099 174.28 54.1895 173.958 53.6119C173.666 53.0708 173.512 52.5224 173.497 51.9667C173.483 51.4037 173.475 50.7676 173.475 50.0584V39.9462H176.459V49.8829C176.459 50.3435 176.462 50.7603 176.47 51.1332C176.484 51.4988 176.561 51.7912 176.7 52.0106C176.963 52.4274 177.384 52.654 177.961 52.6906C178.539 52.7272 179.179 52.6979 179.881 52.6029V55.0815ZM171.457 45.5397V43.2365H179.881V45.5397H171.457Z" fill="#3C4B0E"/>
<g clip-path="url(#clip0_1578_152)">
<path d="M221.831 48.7271H211.96V58.598H208.67V48.7271H198.799V45.4368H208.67V35.5659H211.96V45.4368H221.831V48.7271Z" fill="#3C4B0E"/>
</g>
<defs>
<clipPath id="clip0_1578_152">
<rect width="39.4836" height="39.4836" fill="white" transform="translate(190.574 27.3398)"/>
</clipPath>
</defs>
</svg>
