<svg width="294" height="94" viewBox="0 0 294 94" fill="none" xmlns="http://www.w3.org/2000/svg">
<rect width="293.869" height="93.2251" rx="46.6126" fill="#F4F4F4"/>
<rect width="293.869" height="93.2251" rx="46.6126" fill="#DCFF77"/>
<path d="M99.9096 54.9995V41.9919H94.9303V39.2061H107.872V41.9919H102.893V54.9995H99.9096ZM114.355 55.3285C113.178 55.3285 112.194 55.0544 111.405 54.506C110.615 53.9576 110.019 53.2118 109.617 52.2686C109.222 51.3253 109.025 50.2615 109.025 49.077C109.025 47.8925 109.222 46.8286 109.617 45.8854C110.012 44.9422 110.593 44.1964 111.361 43.648C112.129 43.0996 113.075 42.8254 114.201 42.8254C115.335 42.8254 116.322 43.0959 117.163 43.637C118.004 44.1781 118.654 44.9202 119.115 45.8635C119.583 46.7994 119.817 47.8705 119.817 49.077C119.817 50.2615 119.587 51.3253 119.126 52.2686C118.673 53.2118 118.037 53.9576 117.218 54.506C116.399 55.0544 115.444 55.3285 114.355 55.3285ZM108.52 60.264V43.1544H111.152V51.2705H111.525V60.264H108.52ZM113.872 52.6744C114.516 52.6744 115.042 52.5135 115.452 52.1918C115.861 51.8701 116.165 51.4387 116.362 50.8976C116.56 50.3492 116.658 49.7423 116.658 49.077C116.658 48.4189 116.556 47.8193 116.351 47.2783C116.146 46.7299 115.828 46.2948 115.397 45.9731C114.973 45.6441 114.428 45.4796 113.763 45.4796C113.141 45.4796 112.637 45.6295 112.249 45.9293C111.869 46.229 111.591 46.6495 111.416 47.1905C111.24 47.7316 111.152 48.3604 111.152 49.077C111.152 49.7935 111.24 50.4223 111.416 50.9634C111.591 51.5045 111.876 51.9249 112.271 52.2247C112.673 52.5245 113.207 52.6744 113.872 52.6744ZM125.521 55.3285C124.672 55.3285 123.952 55.1677 123.36 54.846C122.775 54.5169 122.329 54.0819 122.022 53.5408C121.722 52.9924 121.572 52.3892 121.572 51.7311C121.572 51.1828 121.656 50.6819 121.825 50.2286C121.993 49.7752 122.263 49.3768 122.636 49.0331C123.016 48.6821 123.525 48.3897 124.161 48.1557C124.599 47.9948 125.122 47.8523 125.729 47.728C126.336 47.6037 127.023 47.4867 127.791 47.377C128.559 47.26 129.403 47.132 130.324 46.9931L129.25 47.5854C129.25 46.8834 129.081 46.368 128.745 46.0389C128.409 45.7099 127.846 45.5454 127.056 45.5454C126.617 45.5454 126.16 45.6514 125.685 45.8635C125.21 46.0755 124.877 46.452 124.687 46.9931L121.989 46.1376C122.289 45.1579 122.852 44.3609 123.678 43.7467C124.504 43.1325 125.63 42.8254 127.056 42.8254C128.102 42.8254 129.03 42.9863 129.842 43.308C130.654 43.6297 131.268 44.1854 131.684 44.9751C131.918 45.4138 132.057 45.8525 132.101 46.2912C132.145 46.7299 132.167 47.2198 132.167 47.7609V54.9995H129.557V52.5647L129.93 53.0692C129.352 53.8662 128.727 54.4438 128.054 54.8021C127.389 55.1531 126.544 55.3285 125.521 55.3285ZM126.157 52.9815C126.705 52.9815 127.166 52.8864 127.539 52.6963C127.919 52.4989 128.219 52.2759 128.438 52.0273C128.665 51.7787 128.818 51.5703 128.899 51.4021C129.052 51.0804 129.14 50.7075 129.162 50.2834C129.191 49.852 129.206 49.4937 129.206 49.2086L130.083 49.4279C129.198 49.5742 128.482 49.6985 127.934 49.8008C127.385 49.8959 126.943 49.9836 126.606 50.0641C126.27 50.1445 125.974 50.2322 125.718 50.3273C125.426 50.4443 125.188 50.5722 125.005 50.7112C124.83 50.8428 124.698 50.989 124.61 51.1499C124.53 51.3107 124.49 51.4899 124.49 51.6873C124.49 51.9578 124.555 52.1918 124.687 52.3892C124.826 52.5793 125.02 52.7256 125.268 52.8279C125.517 52.9303 125.813 52.9815 126.157 52.9815ZM137.914 54.9995V45.7867H134.032V43.1544H144.78V45.7867H140.897V54.9995H137.914ZM149.919 55.3285C149.071 55.3285 148.351 55.1677 147.759 54.846C147.174 54.5169 146.728 54.0819 146.421 53.5408C146.121 52.9924 145.971 52.3892 145.971 51.7311C145.971 51.1828 146.055 50.6819 146.223 50.2286C146.391 49.7752 146.662 49.3768 147.035 49.0331C147.415 48.6821 147.923 48.3897 148.559 48.1557C148.998 47.9948 149.521 47.8523 150.128 47.728C150.735 47.6037 151.422 47.4867 152.19 47.377C152.957 47.26 153.802 47.132 154.723 46.9931L153.648 47.5854C153.648 46.8834 153.48 46.368 153.144 46.0389C152.808 45.7099 152.245 45.5454 151.455 45.5454C151.016 45.5454 150.559 45.6514 150.084 45.8635C149.609 46.0755 149.276 46.452 149.086 46.9931L146.388 46.1376C146.688 45.1579 147.251 44.3609 148.077 43.7467C148.903 43.1325 150.029 42.8254 151.455 42.8254C152.5 42.8254 153.429 42.9863 154.241 43.308C155.052 43.6297 155.666 44.1854 156.083 44.9751C156.317 45.4138 156.456 45.8525 156.5 46.2912C156.544 46.7299 156.566 47.2198 156.566 47.7609V54.9995H153.955V52.5647L154.328 53.0692C153.751 53.8662 153.126 54.4438 152.453 54.8021C151.788 55.1531 150.943 55.3285 149.919 55.3285ZM150.556 52.9815C151.104 52.9815 151.565 52.8864 151.937 52.6963C152.318 52.4989 152.617 52.2759 152.837 52.0273C153.063 51.7787 153.217 51.5703 153.297 51.4021C153.451 51.0804 153.539 50.7075 153.561 50.2834C153.59 49.852 153.605 49.4937 153.605 49.2086L154.482 49.4279C153.597 49.5742 152.881 49.6985 152.332 49.8008C151.784 49.8959 151.342 49.9836 151.005 50.0641C150.669 50.1445 150.373 50.2322 150.117 50.3273C149.824 50.4443 149.587 50.5722 149.404 50.7112C149.228 50.8428 149.097 50.989 149.009 51.1499C148.929 51.3107 148.888 51.4899 148.888 51.6873C148.888 51.9578 148.954 52.1918 149.086 52.3892C149.225 52.5793 149.419 52.7256 149.667 52.8279C149.916 52.9303 150.212 52.9815 150.556 52.9815Z" fill="#3C4B0E"/>
<g clip-path="url(#clip0_1631_399)">
<path d="M198.741 48.6451H188.87V58.516H185.58V48.6451H175.709V45.3548H185.58V35.4839H188.87V45.3548H198.741V48.6451Z" fill="#3C4B0E"/>
</g>
<defs>
<clipPath id="clip0_1631_399">
<rect width="39.4836" height="39.4836" fill="white" transform="translate(167.484 27.2578)"/>
</clipPath>
</defs>
</svg>
