<svg width="333" height="206" viewBox="0 0 333 206" fill="none" xmlns="http://www.w3.org/2000/svg">
<rect width="332" height="205" rx="24.1289" fill="#F4F4F4"/>
<rect width="332" height="205" rx="24.1289" fill="#E0F367"/>
<g clip-path="url(#clip0_1578_144)">
<path d="M306.773 172.096H300.192V178.677H297.999V172.096H291.418V169.903H297.999V163.322H300.192V169.903H306.773V172.096Z" fill="#4B4614"/>
</g>
<path d="M55.2343 127.043C52.431 127.043 50.0159 126.411 47.9891 125.148C45.9754 123.884 44.4158 122.14 43.3103 119.916C42.2179 117.679 41.6454 115.119 41.5928 112.237C41.6586 109.262 42.2443 106.669 43.3498 104.458C44.4553 102.234 46.0149 100.51 48.0286 99.286C50.0423 98.0488 52.4442 97.4303 55.2343 97.4303C56.59 97.4303 57.8929 97.6014 59.1432 97.9435C60.4067 98.2726 61.578 98.7727 62.6573 99.4439L60.1303 103.373C59.4459 102.886 58.676 102.517 57.8205 102.267C56.9782 102.017 56.1161 101.892 55.2343 101.892C53.3128 101.892 51.7203 102.326 50.4568 103.195C49.2065 104.063 48.2589 105.281 47.614 106.847C46.9823 108.4 46.6598 110.197 46.6467 112.237C46.6598 114.316 46.9889 116.132 47.6338 117.685C48.2787 119.238 49.2328 120.443 50.4963 121.298C51.773 122.154 53.3523 122.575 55.2343 122.562C57.0769 122.601 58.7221 122.114 60.1698 121.101L62.6573 124.99C61.578 125.674 60.4001 126.187 59.1235 126.53C57.86 126.872 56.5636 127.043 55.2343 127.043ZM38.4736 117.409V113.678H57.1493V117.409H38.4736ZM38.4736 110.835V107.104H57.1493V110.835H38.4736ZM75.2966 126.964C73.8752 126.964 72.5196 126.681 71.2298 126.115C69.94 125.536 68.8147 124.727 67.854 123.687C66.9064 122.647 66.2286 121.423 65.8206 120.015L71.0324 118.633C71.3088 119.673 71.8484 120.482 72.6512 121.061C73.4672 121.627 74.349 121.91 75.2966 121.91C76.1126 121.91 76.8562 121.713 77.5275 121.318C78.2118 120.923 78.7514 120.39 79.1463 119.719C79.5543 119.048 79.7583 118.304 79.7583 117.488C79.7583 116.264 79.3371 115.218 78.4948 114.349C77.6656 113.467 76.5996 113.026 75.2966 113.026C74.9018 113.026 74.5201 113.085 74.1516 113.204C73.7831 113.309 73.4277 113.461 73.0855 113.658L70.6771 109.433L79.7188 101.931L80.1136 103.076H66.9261V98.0225H84.6937V103.076L77.6656 109.868L77.6262 108.367C79.2581 108.617 80.6335 109.19 81.7522 110.085C82.8841 110.967 83.7395 112.059 84.3186 113.362C84.9109 114.652 85.207 116.027 85.207 117.488C85.207 119.278 84.7529 120.89 83.8448 122.325C82.9367 123.746 81.7325 124.878 80.2321 125.72C78.7317 126.549 77.0866 126.964 75.2966 126.964ZM91.7542 126.451L101.309 103.076H89.1483V98.0225H107.074V103.076L97.5583 126.451H91.7542Z" fill="#2B2708"/>
<path d="M38.3658 39.0322V27.9768H45.0221V29.8271H40.2161V32.5832H44.1008V34.4258H40.2161V39.0322H38.3658ZM49.8403 39.2625C49.0111 39.2625 48.2869 39.0757 47.6676 38.7021C47.0483 38.3285 46.5671 37.8141 46.2242 37.159C45.8864 36.4987 45.7175 35.7412 45.7175 34.8865C45.7175 34.0163 45.8915 33.2537 46.2396 32.5986C46.5876 31.9435 47.0713 31.4316 47.6906 31.0631C48.3099 30.6946 49.0265 30.5104 49.8403 30.5104C50.6745 30.5104 51.4013 30.6972 52.0206 31.0708C52.6399 31.4444 53.1211 31.9614 53.464 32.6216C53.8069 33.2768 53.9784 34.0317 53.9784 34.8865C53.9784 35.7463 53.8043 36.5064 53.4563 37.1666C53.1134 37.8218 52.6323 38.3361 52.013 38.7098C51.3936 39.0783 50.6694 39.2625 49.8403 39.2625ZM49.8403 37.5275C50.5773 37.5275 51.1249 37.2818 51.4832 36.7904C51.8415 36.2991 52.0206 35.6644 52.0206 34.8865C52.0206 34.0829 51.8389 33.4431 51.4755 32.9671C51.1121 32.486 50.5671 32.2454 49.8403 32.2454C49.3438 32.2454 48.9343 32.358 48.6119 32.5832C48.2946 32.8033 48.0591 33.113 47.9056 33.5122C47.752 33.9063 47.6752 34.3644 47.6752 34.8865C47.6752 35.69 47.8569 36.3324 48.2203 36.8135C48.5889 37.2895 49.1288 37.5275 49.8403 37.5275ZM55.6699 39.0322V30.7407H57.3052V32.7598L57.1056 32.4988C57.2079 32.2224 57.3436 31.9716 57.5125 31.7464C57.6865 31.5161 57.8938 31.3267 58.1343 31.1783C58.3391 31.0401 58.5643 30.9326 58.8099 30.8558C59.0607 30.7739 59.3166 30.7253 59.5777 30.71C59.8387 30.6895 60.0921 30.6997 60.3377 30.7407V32.4681C60.0921 32.3964 59.808 32.3734 59.4855 32.399C59.1682 32.4246 58.8816 32.5141 58.6257 32.6677C58.3698 32.8059 58.1599 32.9825 57.9961 33.1974C57.8375 33.4124 57.7198 33.6581 57.643 33.9345C57.5662 34.2057 57.5278 34.5 57.5278 34.8174V39.0322H55.6699ZM69.7365 39.0322C69.1889 39.1346 68.6514 39.1781 68.1243 39.1627C67.6022 39.1525 67.1339 39.0578 66.7193 38.8787C66.3047 38.6944 65.99 38.4052 65.775 38.0111C65.5856 37.6529 65.4858 37.2869 65.4756 36.9133C65.4653 36.5396 65.4602 36.1174 65.4602 35.6465V28.4375H67.3028V35.539C67.3028 35.8717 67.3053 36.1635 67.3105 36.4142C67.3207 36.665 67.3744 36.8698 67.4717 37.0284C67.6559 37.3355 67.9502 37.507 68.3546 37.5428C68.7589 37.5786 69.2196 37.5582 69.7365 37.4814V39.0322ZM63.9555 32.1917V30.7407H69.7365V32.1917H63.9555ZM74.7617 39.2625C73.9325 39.2625 73.2083 39.0757 72.589 38.7021C71.9697 38.3285 71.4886 37.8141 71.1457 37.159C70.8079 36.4987 70.639 35.7412 70.639 34.8865C70.639 34.0163 70.813 33.2537 71.161 32.5986C71.5091 31.9435 71.9927 31.4316 72.612 31.0631C73.2313 30.6946 73.9479 30.5104 74.7617 30.5104C75.596 30.5104 76.3228 30.6972 76.9421 31.0708C77.5614 31.4444 78.0425 31.9614 78.3854 32.6216C78.7283 33.2768 78.8998 34.0317 78.8998 34.8865C78.8998 35.7463 78.7258 36.5064 78.3777 37.1666C78.0348 37.8218 77.5537 38.3361 76.9344 38.7098C76.3151 39.0783 75.5909 39.2625 74.7617 39.2625ZM74.7617 37.5275C75.4987 37.5275 76.0464 37.2818 76.4047 36.7904C76.7629 36.2991 76.9421 35.6644 76.9421 34.8865C76.9421 34.0829 76.7604 33.4431 76.397 32.9671C76.0336 32.486 75.4885 32.2454 74.7617 32.2454C74.2652 32.2454 73.8558 32.358 73.5333 32.5832C73.216 32.8033 72.9806 33.113 72.827 33.5122C72.6735 33.9063 72.5967 34.3644 72.5967 34.8865C72.5967 35.69 72.7784 36.3324 73.1418 36.8135C73.5103 37.2895 74.0503 37.5275 74.7617 37.5275ZM83.9156 39.2625C83.153 39.2625 82.4876 39.0706 81.9195 38.6867C81.3514 38.3029 80.9112 37.7808 80.599 37.1206C80.2868 36.4603 80.1307 35.7156 80.1307 34.8865C80.1307 34.0471 80.2868 33.2998 80.599 32.6447C80.9163 31.9844 81.3642 31.4649 81.9426 31.0862C82.5209 30.7023 83.2016 30.5104 83.9847 30.5104C84.7729 30.5104 85.4332 30.7023 85.9655 31.0862C86.5029 31.4649 86.9098 31.9844 87.1862 32.6447C87.4626 33.3049 87.6008 34.0522 87.6008 34.8865C87.6008 35.7105 87.4626 36.4552 87.1862 37.1206C86.9098 37.7808 86.4978 38.3029 85.9501 38.6867C85.4025 39.0706 84.7243 39.2625 83.9156 39.2625ZM84.1997 37.6042C84.6962 37.6042 85.0954 37.4916 85.3974 37.2664C85.7045 37.0361 85.9271 36.7162 86.0653 36.3068C86.2086 35.8973 86.2803 35.4239 86.2803 34.8865C86.2803 34.3439 86.2086 33.8705 86.0653 33.4661C85.9271 33.0567 85.7096 32.7393 85.4127 32.5141C85.1159 32.2838 84.732 32.1687 84.2611 32.1687C83.7646 32.1687 83.3552 32.2915 83.0327 32.5372C82.7103 32.7777 82.4723 33.1053 82.3187 33.5199C82.1652 33.9293 82.0884 34.3849 82.0884 34.8865C82.0884 35.3932 82.1626 35.8538 82.3111 36.2684C82.4646 36.6778 82.6975 37.0028 83.0097 37.2434C83.3219 37.484 83.7186 37.6042 84.1997 37.6042ZM86.2803 39.0322V33.2128H86.0499V27.9768H87.9155V39.0322H86.2803ZM92.3866 39.2625C91.7878 39.2625 91.2811 39.1499 90.8665 38.9247C90.4519 38.6944 90.1372 38.3899 89.9222 38.0111C89.7124 37.6324 89.6074 37.2153 89.6074 36.7597C89.6074 36.3605 89.674 36.0022 89.807 35.6849C89.9401 35.3624 90.1449 35.0861 90.4212 34.8557C90.6976 34.6203 91.0559 34.4284 91.4961 34.2799C91.8288 34.1725 92.2177 34.0752 92.663 33.9882C93.1134 33.9012 93.5997 33.8219 94.1217 33.7502C94.6489 33.6734 95.1991 33.5915 95.7724 33.5045L95.1121 33.8807C95.1172 33.3075 94.9893 32.8852 94.7282 32.614C94.4672 32.3427 94.027 32.2071 93.4077 32.2071C93.0341 32.2071 92.6733 32.2941 92.3252 32.4681C91.9772 32.6421 91.7341 32.9415 91.5959 33.3663L89.9069 32.8366C90.1116 32.1354 90.5006 31.5724 91.0738 31.1476C91.6522 30.7228 92.4301 30.5104 93.4077 30.5104C94.1448 30.5104 94.7922 30.6306 95.3501 30.8712C95.9131 31.1117 96.3302 31.5059 96.6015 32.0535C96.7499 32.3452 96.8395 32.6447 96.8702 32.9518C96.9009 33.2537 96.9163 33.5839 96.9163 33.9421V39.0322H95.2964V37.2357L95.5651 37.5275C95.1914 38.1263 94.7538 38.5665 94.2522 38.848C93.7558 39.1244 93.1339 39.2625 92.3866 39.2625ZM92.7552 37.7885C93.1749 37.7885 93.5331 37.7143 93.83 37.5659C94.1268 37.4174 94.3623 37.2357 94.5363 37.0208C94.7154 36.8058 94.8357 36.6036 94.8971 36.4142C94.9944 36.1788 95.0481 35.9101 95.0584 35.6081C95.0737 35.301 95.0814 35.0528 95.0814 34.8634L95.6495 35.0323C95.0916 35.1193 94.6131 35.1961 94.2139 35.2626C93.8146 35.3292 93.4717 35.3932 93.1851 35.4546C92.8985 35.5109 92.6451 35.5749 92.425 35.6465C92.2101 35.7233 92.0284 35.8129 91.8799 35.9152C91.7315 36.0176 91.6163 36.1353 91.5345 36.2684C91.4577 36.4015 91.4193 36.5576 91.4193 36.7367C91.4193 36.9414 91.4705 37.1231 91.5728 37.2818C91.6752 37.4353 91.8236 37.5582 92.0181 37.6503C92.2177 37.7424 92.4634 37.7885 92.7552 37.7885ZM99.5404 42.7174L101.137 38.3336L101.168 39.6234L97.5519 30.7407H99.479L102.043 37.3125H101.552L104.047 30.7407H105.897L101.275 42.7174H99.5404Z" fill="#2B2708"/>
<defs>
<clipPath id="clip0_1578_144">
<rect width="26.3224" height="26.3224" fill="white" transform="translate(285.934 157.839)"/>
</clipPath>
</defs>
</svg>
