<svg width="333" height="206" viewBox="0 0 333 206" fill="none" xmlns="http://www.w3.org/2000/svg">
<rect width="332" height="205" rx="24.1289" fill="#F4F4F4"/>
<rect width="332" height="205" rx="24.1289" fill="#E0F367"/>
<g clip-path="url(#clip0_1631_408)">
<path d="M306.775 172.097H300.194V178.678H298.001V172.097H291.42V169.904H298.001V163.323H300.194V169.904H306.775V172.097Z" fill="#4B4614"/>
</g>
<path d="M48.1885 126.984C46.7671 126.984 45.4246 126.708 44.1612 126.155C42.8977 125.602 41.7987 124.819 40.8643 123.806C39.943 122.792 39.2784 121.595 38.8704 120.213L43.4702 118.969C43.7992 120.101 44.3981 120.976 45.2667 121.595C46.1485 122.2 47.1158 122.496 48.1687 122.483C49.1032 122.483 49.9389 122.266 50.6759 121.832C51.413 121.397 51.9921 120.812 52.4132 120.075C52.8344 119.324 53.045 118.489 53.045 117.567C53.045 116.159 52.5909 114.981 51.6828 114.034C50.7747 113.086 49.6033 112.612 48.1687 112.612C47.7344 112.612 47.3067 112.671 46.8855 112.79C46.4775 112.908 46.0827 113.073 45.701 113.283L43.5294 109.532L53.0844 101.359L53.499 102.504H39.9759V98.023H57.4079V102.524L49.7283 109.908L49.6889 108.506C51.413 108.624 52.8804 109.105 54.0913 109.947C55.3153 110.789 56.2497 111.875 56.8946 113.204C57.5527 114.534 57.8817 115.988 57.8817 117.567C57.8817 119.357 57.4408 120.963 56.559 122.384C55.6904 123.806 54.519 124.931 53.045 125.76C51.5841 126.576 49.9652 126.984 48.1885 126.984ZM82.707 126.451V121.753H70.1117V117.311L79.2127 98.023H84.6417L75.5407 117.311H82.707V109.908H87.524V117.311H90.1891V121.753H87.524V126.451H82.707ZM103.353 127.043C101.905 127.043 100.556 126.747 99.3058 126.155C98.0555 125.55 96.9763 124.72 96.0682 123.668C95.1732 122.615 94.5283 121.391 94.1335 119.996L98.7136 118.772C98.8978 119.535 99.2334 120.193 99.7204 120.746C100.221 121.299 100.8 121.726 101.458 122.029C102.129 122.332 102.82 122.483 103.531 122.483C104.452 122.483 105.294 122.259 106.058 121.812C106.821 121.364 107.426 120.766 107.874 120.015C108.321 119.252 108.545 118.41 108.545 117.488C108.545 116.567 108.315 115.731 107.854 114.981C107.407 114.218 106.801 113.619 106.038 113.185C105.274 112.737 104.439 112.513 103.531 112.513C102.438 112.513 101.53 112.711 100.806 113.106C100.096 113.501 99.5493 113.922 99.1676 114.369L95.1008 113.066L95.9695 98.023H111.408V102.485H98.5162L100.293 100.807L99.6612 111.27L98.7925 110.204C99.5296 109.532 100.385 109.032 101.359 108.703C102.333 108.374 103.274 108.21 104.182 108.21C105.959 108.21 107.532 108.618 108.9 109.434C110.282 110.237 111.361 111.336 112.138 112.731C112.928 114.126 113.322 115.712 113.322 117.488C113.322 119.265 112.862 120.877 111.941 122.325C111.019 123.76 109.802 124.905 108.288 125.76C106.788 126.616 105.143 127.043 103.353 127.043ZM127.238 97.4702C129.094 97.4702 130.765 97.9111 132.252 98.7929C133.74 99.6616 134.911 100.872 135.766 102.425C136.635 103.965 137.069 105.742 137.069 107.756V116.422C137.069 118.568 136.635 120.443 135.766 122.049C134.911 123.641 133.707 124.872 132.154 125.74C130.601 126.609 128.784 127.043 126.705 127.043C125.27 127.043 123.915 126.8 122.638 126.313C121.362 125.813 120.216 125.05 119.203 124.023L122.618 120.687C123.132 121.279 123.744 121.746 124.454 122.088C125.178 122.417 125.928 122.582 126.705 122.582C127.81 122.582 128.778 122.325 129.607 121.812C130.436 121.285 131.081 120.608 131.542 119.778C132.002 118.936 132.233 118.035 132.233 117.074V112.356L133.082 113.303C132.279 114.251 131.305 114.994 130.16 115.534C129.015 116.06 127.81 116.324 126.547 116.324C124.77 116.324 123.191 115.916 121.809 115.1C120.44 114.284 119.361 113.178 118.571 111.783C117.795 110.375 117.407 108.782 117.407 107.006C117.407 105.229 117.854 103.623 118.749 102.189C119.644 100.741 120.835 99.5958 122.322 98.7534C123.823 97.898 125.461 97.4702 127.238 97.4702ZM127.238 102.011C126.317 102.011 125.474 102.235 124.711 102.682C123.948 103.13 123.342 103.735 122.895 104.498C122.447 105.248 122.224 106.084 122.224 107.006C122.224 107.927 122.441 108.769 122.875 109.532C123.323 110.296 123.921 110.901 124.672 111.349C125.435 111.796 126.277 112.02 127.199 112.02C128.12 112.02 128.962 111.796 129.725 111.349C130.489 110.901 131.094 110.296 131.542 109.532C132.002 108.769 132.233 107.927 132.233 107.006C132.233 106.111 132.009 105.288 131.561 104.538C131.114 103.774 130.509 103.162 129.745 102.702C128.995 102.241 128.159 102.011 127.238 102.011Z" fill="#2B2708"/>
<path d="M38.3658 39.0322V27.9768H40.2161V32.6293H45.4521V27.9768H47.2946V39.0322H45.4521V34.3644H40.2161V39.0322H38.3658ZM51.7656 39.2625C51.1668 39.2625 50.6601 39.1499 50.2455 38.9247C49.8309 38.6944 49.5161 38.3899 49.3012 38.0111C49.0913 37.6324 48.9864 37.2153 48.9864 36.7597C48.9864 36.3605 49.0529 36.0022 49.186 35.6849C49.3191 35.3624 49.5238 35.0861 49.8002 34.8557C50.0766 34.6203 50.4349 34.4284 50.875 34.2799C51.2077 34.1725 51.5967 34.0752 52.042 33.9882C52.4924 33.9012 52.9786 33.8219 53.5007 33.7502C54.0279 33.6734 54.5781 33.5915 55.1513 33.5045L54.4911 33.8807C54.4962 33.3075 54.3682 32.8852 54.1072 32.614C53.8462 32.3427 53.406 32.2071 52.7867 32.2071C52.4131 32.2071 52.0522 32.2941 51.7042 32.4681C51.3561 32.6421 51.113 32.9415 50.9748 33.3663L49.2858 32.8366C49.4905 32.1354 49.8795 31.5724 50.4528 31.1476C51.0311 30.7228 51.8091 30.5104 52.7867 30.5104C53.5237 30.5104 54.1712 30.6306 54.7291 30.8712C55.2921 31.1117 55.7092 31.5059 55.9805 32.0535C56.1289 32.3452 56.2185 32.6447 56.2492 32.9518C56.2799 33.2537 56.2952 33.5839 56.2952 33.9421V39.0322H54.6753V37.2357L54.944 37.5275C54.5704 38.1263 54.1328 38.5665 53.6312 38.848C53.1347 39.1244 52.5129 39.2625 51.7656 39.2625ZM52.1341 37.7885C52.5538 37.7885 52.9121 37.7143 53.2089 37.5659C53.5058 37.4174 53.7412 37.2357 53.9153 37.0208C54.0944 36.8058 54.2147 36.6036 54.2761 36.4142C54.3733 36.1788 54.4271 35.9101 54.4373 35.6081C54.4527 35.301 54.4604 35.0528 54.4604 34.8634L55.0285 35.0323C54.4706 35.1193 53.992 35.1961 53.5928 35.2626C53.1936 35.3292 52.8507 35.3932 52.564 35.4546C52.2774 35.5109 52.0241 35.5749 51.804 35.6465C51.589 35.7233 51.4073 35.8129 51.2589 35.9152C51.1105 36.0176 50.9953 36.1353 50.9134 36.2684C50.8366 36.4015 50.7983 36.5576 50.7983 36.7367C50.7983 36.9414 50.8494 37.1231 50.9518 37.2818C51.0542 37.4353 51.2026 37.5582 51.3971 37.6503C51.5967 37.7424 51.8424 37.7885 52.1341 37.7885ZM64.9686 39.2625C64.1139 39.2625 63.3845 39.0732 62.7806 38.6944C62.1766 38.3106 61.7134 37.7885 61.391 37.1282C61.0736 36.468 60.9124 35.7207 60.9073 34.8865C60.9124 34.0368 61.0788 33.2844 61.4063 32.6293C61.739 31.9691 62.2099 31.4521 62.819 31.0785C63.428 30.6997 64.1523 30.5104 64.9917 30.5104C65.9334 30.5104 66.7293 30.7484 67.3793 31.2243C68.0345 31.6952 68.4618 32.3401 68.6614 33.159L66.8189 33.6581C66.6756 33.2128 66.4376 32.8673 66.1049 32.6216C65.7722 32.3708 65.3934 32.2454 64.9686 32.2454C64.4875 32.2454 64.0908 32.3606 63.7786 32.5909C63.4664 32.8161 63.2361 33.1283 63.0877 33.5276C62.9392 33.9268 62.865 34.3797 62.865 34.8865C62.865 35.6747 63.0416 36.3119 63.3948 36.7981C63.7479 37.2843 64.2725 37.5275 64.9686 37.5275C65.46 37.5275 65.8464 37.4149 66.1279 37.1897C66.4145 36.9645 66.6295 36.6394 66.7728 36.2146L68.6614 36.6369C68.4055 37.4814 67.9577 38.1314 67.3179 38.5869C66.6781 39.0373 65.895 39.2625 64.9686 39.2625ZM73.9695 39.2625C73.1301 39.2625 72.3931 39.0808 71.7584 38.7175C71.1237 38.3541 70.6273 37.8499 70.269 37.205C69.9158 36.5601 69.7393 35.818 69.7393 34.9786C69.7393 34.0727 69.9133 33.287 70.2613 32.6216C70.6094 31.9511 71.093 31.4316 71.7123 31.0631C72.3317 30.6946 73.0482 30.5104 73.862 30.5104C74.7219 30.5104 75.4512 30.7125 76.0501 31.1169C76.654 31.5161 77.1019 32.0817 77.3936 32.8136C77.6853 33.5455 77.7954 34.4079 77.7237 35.4008H75.8888V34.7252C75.8837 33.8244 75.725 33.1667 75.4128 32.7521C75.1006 32.3376 74.6093 32.1303 73.9388 32.1303C73.1813 32.1303 72.6183 32.3657 72.2498 32.8366C71.8812 33.3024 71.697 33.9856 71.697 34.8865C71.697 35.7258 71.8812 36.3759 72.2498 36.8365C72.6183 37.2971 73.1557 37.5275 73.862 37.5275C74.3175 37.5275 74.7091 37.4277 75.0366 37.228C75.3693 37.0233 75.6252 36.729 75.8044 36.3451L77.6316 36.8979C77.3143 37.6452 76.8229 38.2261 76.1575 38.6407C75.4973 39.0553 74.7679 39.2625 73.9695 39.2625ZM71.1135 35.4008V34.0036H76.8178V35.4008H71.1135ZM79.4367 39.0322V30.7407H85.3483V32.4758H81.287V39.0322H79.4367ZM90.3264 39.2625C89.4972 39.2625 88.773 39.0757 88.1537 38.7021C87.5344 38.3285 87.0532 37.8141 86.7103 37.159C86.3725 36.4987 86.2036 35.7412 86.2036 34.8865C86.2036 34.0163 86.3776 33.2537 86.7257 32.5986C87.0737 31.9435 87.5574 31.4316 88.1767 31.0631C88.796 30.6946 89.5126 30.5104 90.3264 30.5104C91.1606 30.5104 91.8874 30.6972 92.5067 31.0708C93.126 31.4444 93.6071 31.9614 93.9501 32.6216C94.293 33.2768 94.4645 34.0317 94.4645 34.8865C94.4645 35.7463 94.2904 36.5064 93.9424 37.1666C93.5995 37.8218 93.1184 38.3361 92.499 38.7098C91.8797 39.0783 91.1555 39.2625 90.3264 39.2625ZM90.3264 37.5275C91.0634 37.5275 91.611 37.2818 91.9693 36.7904C92.3276 36.2991 92.5067 35.6644 92.5067 34.8865C92.5067 34.0829 92.325 33.4431 91.9616 32.9671C91.5982 32.486 91.0531 32.2454 90.3264 32.2454C89.8299 32.2454 89.4204 32.358 89.098 32.5832C88.7806 32.8033 88.5452 33.113 88.3917 33.5122C88.2381 33.9063 88.1613 34.3644 88.1613 34.8865C88.1613 35.69 88.343 36.3324 88.7064 36.8135C89.0749 37.2895 89.6149 37.5275 90.3264 37.5275ZM95.5418 40.8748V37.5812C95.9922 37.5812 96.3121 37.4277 96.5015 37.1206C96.6908 36.8135 96.8418 36.2812 96.9544 35.5237C97.0261 35.0733 97.0849 34.5973 97.131 34.0957C97.1771 33.5941 97.2155 33.0644 97.2462 32.5065C97.282 31.9486 97.3127 31.36 97.3383 30.7407H103.511V37.5812H104.348V40.8748H102.597V39.0322H97.2846V40.8748H95.5418ZM98.0216 37.5812H101.668V32.1917H98.9582C98.9429 32.4988 98.925 32.8136 98.9045 33.136C98.884 33.4533 98.861 33.7707 98.8354 34.088C98.8098 34.4053 98.7816 34.7099 98.7509 35.0016C98.7253 35.2882 98.6946 35.5544 98.6588 35.8001C98.6025 36.23 98.5334 36.5831 98.4515 36.8595C98.3696 37.1359 98.2263 37.3765 98.0216 37.5812ZM105.872 39.0322V30.7407H107.723V34.0112H111.446V30.7407H113.296V39.0322H111.446V35.7463H107.723V39.0322H105.872ZM120.399 39.0322V36.2684H118.917C118.728 36.2684 118.49 36.2633 118.203 36.253C117.922 36.2428 117.658 36.2172 117.412 36.1762C116.773 36.0585 116.243 35.7796 115.823 35.3394C115.404 34.8941 115.194 34.2902 115.194 33.5276C115.194 32.7803 115.393 32.1789 115.793 31.7234C116.192 31.2679 116.711 30.9761 117.351 30.8482C117.617 30.7919 117.891 30.7611 118.173 30.756C118.459 30.7458 118.697 30.7407 118.886 30.7407H122.249V39.0322H120.399ZM114.979 39.0322L116.959 35.8615H118.886L116.921 39.0322H114.979ZM118.725 34.8174H120.399V32.1917H118.725C118.628 32.1917 118.51 32.1968 118.372 32.2071C118.234 32.2173 118.096 32.2403 117.958 32.2761C117.809 32.3222 117.668 32.4015 117.535 32.5141C117.402 32.6267 117.292 32.7675 117.205 32.9364C117.118 33.1053 117.075 33.2972 117.075 33.5122C117.075 33.8347 117.167 34.1034 117.351 34.3183C117.54 34.5282 117.76 34.6689 118.011 34.7406C118.134 34.7713 118.26 34.7918 118.387 34.802C118.521 34.8122 118.633 34.8174 118.725 34.8174Z" fill="#2B2708"/>
<defs>
<clipPath id="clip0_1631_408">
<rect width="26.3224" height="26.3224" fill="white" transform="translate(285.938 157.839)"/>
</clipPath>
</defs>
</svg>
