<svg xmlns="http://www.w3.org/2000/svg" width="24" height="24" fill="none">
  <g clip-path="url(#a)">
    <path fill="currentColor" fill-rule="evenodd" d="M12.05 2C6.54 2 2.08 6.58 2.08 12.25c0 4.54 2.86 8.37 6.82 9.73.5.1.68-.22.68-.5l-.02-1.9c-2.77.62-3.35-1.22-3.35-1.22-.45-1.18-1.1-1.49-1.1-1.49-.91-.63.06-.63.06-.63 1 .07 1.54 1.06 1.54 1.06.89 1.56 2.32 1.12 2.9.84a2.2 2.2 0 0 1 .63-1.37c-2.21-.24-4.54-1.12-4.54-5.06 0-1.12.4-2.04 1.02-2.75a3.8 3.8 0 0 1 .1-2.72s.84-.27 2.74 1.06a9.4 9.4 0 0 1 4.99 0c1.9-1.33 2.74-1.06 2.74-1.06.54 1.41.2 2.47.1 2.72a3.98 3.98 0 0 1 1.02 2.75c0 3.94-2.33 4.8-4.56 5.06.37.32.68.93.68 1.9l-.02 2.82c0 .27.18.6.68.5a10.23 10.23 0 0 0 6.82-9.74A10.1 10.1 0 0 0 12.05 2Z" clip-rule="evenodd"/>
  </g>
  <defs>
    <clipPath id="a">
      <path fill="#fff" d="M0 0h24v24H0z"/>
    </clipPath>
  </defs>
</svg>